<?xml version="1.0" encoding="UTF-8" standalone="no"?>
<!DOCTYPE svg PUBLIC "-//W3C//DTD SVG 1.1//EN" "http://www.w3.org/Graphics/SVG/1.1/DTD/svg11.dtd">
<svg width="100%" height="100%" viewBox="0 0 200 120" version="1.1" xmlns="http://www.w3.org/2000/svg" xmlns:xlink="http://www.w3.org/1999/xlink" xml:space="preserve" xmlns:serif="http://www.serif.com/" style="fill-rule:evenodd;clip-rule:evenodd;stroke-linejoin:round;stroke-miterlimit:2;">
    <g transform="matrix(1.79925,0,0,1.79925,-40.7204,12.6317)">
        <path d="M104.561,23.877C104.088,15.196 101.123,8.836 97.083,5.355C92.7,1.616 84.534,0.154 78.217,0.197C71.899,0.154 63.734,1.616 59.35,5.355C55.311,8.836 52.345,15.196 51.872,23.877C51.443,32.042 53.205,40.939 57.846,45.967C62.315,50.909 71.254,52.456 78.173,52.456C85.093,52.499 94.031,50.909 98.501,45.967C103.143,40.896 104.947,32 104.561,23.877ZM76.712,2.389C77.572,2.346 77.787,2.346 78.174,2.346C78.56,2.346 78.732,2.346 79.635,2.389L79.678,21.385L76.669,21.385C76.669,21.385 76.669,2.389 76.712,2.389ZM55.353,31.87C55.096,28.604 54.107,16.7 58.835,9.91C60.854,6.945 63.82,4.968 66.828,3.936C70.997,2.475 75.982,2.389 75.982,2.389C74.048,7.16 70.051,17.388 69.278,19.665C68.332,22.459 67.516,24.049 66.699,29.077C66.183,33.203 65.281,43.474 65.023,47.943C59.436,45.279 56.084,40.208 55.353,31.87ZM78.131,50.264C74.22,50.221 69.406,49.835 65.582,48.201C66.871,44.763 73.016,29.98 76.412,24.221L79.893,24.221C83.245,29.98 89.433,44.763 90.723,48.201C86.855,49.877 82.084,50.221 78.131,50.264ZM100.951,31.828C100.22,40.208 96.868,45.236 91.281,47.944C91.023,43.474 90.121,33.203 89.605,29.077C88.789,24.006 87.972,22.459 87.027,19.666C86.253,17.388 82.256,7.16 80.322,2.389C80.322,2.389 85.308,2.475 89.476,3.936C92.485,4.968 95.45,6.988 97.47,9.91C102.197,16.7 101.209,28.604 100.951,31.828Z" style="fill:rgb(106,115,120);fill-rule:nonzero;"/>
    </g>
</svg>
