<?xml version="1.0" encoding="UTF-8" standalone="no"?>
<!DOCTYPE svg PUBLIC "-//W3C//DTD SVG 1.1//EN" "http://www.w3.org/Graphics/SVG/1.1/DTD/svg11.dtd">
<svg width="100%" height="100%" viewBox="0 0 200 120" version="1.1" xmlns="http://www.w3.org/2000/svg" xmlns:xlink="http://www.w3.org/1999/xlink" xml:space="preserve" xmlns:serif="http://www.serif.com/" style="fill-rule:evenodd;clip-rule:evenodd;stroke-linejoin:round;stroke-miterlimit:2;">
    <g transform="matrix(0.0388,0,0,0.0388,51.5,11.5)">
        <path d="M1250,2500C916.118,2500 602.218,2369.97 366.121,2133.88C130.024,1897.78 0,1583.88 0,1250C0,560.744 560.744,0 1250,0C1583.88,0 1897.78,130.024 2133.88,366.121C2369.97,602.218 2500,916.118 2500,1250C2500,1583.88 2369.97,1897.78 2133.88,2133.88C1897.78,2369.97 1583.88,2500 1250,2500ZM43.249,1250C43.249,1572.33 168.775,1875.37 396.703,2103.3C624.63,2331.22 927.667,2456.75 1250,2456.75C1915.4,2456.75 2456.74,1915.4 2456.74,1250C2456.74,927.667 2331.22,624.63 2103.29,396.703C1875.37,168.77 1572.33,43.249 1250,43.249C927.667,43.249 624.63,168.77 396.703,396.703C168.775,624.63 43.249,927.672 43.249,1250ZM1250,92.983C1888.99,92.983 2407.01,611.004 2407.01,1250C2407.01,1888.99 1888.99,2407.02 1250,2407.02C611.004,2407.02 92.983,1888.99 92.983,1250C92.983,611.004 611.004,92.983 1250,92.983ZM2108.46,587.394L2057.91,524.967L1875.07,603.462L1994.72,446.953L1947.6,388.764L1756.54,634.52L1812.38,702.925L1992.87,628.652L1993.52,629.46L1883.34,790.557L1938.64,859.398L2218.75,723.617L2171.63,665.427L1993.67,749.915L2108.46,587.394ZM1255.4,373.072L1172.51,156.153L1080.91,156.153L1080.91,460.694L1141.87,460.694L1141.87,248.053L1222.1,460.694L1288.71,460.694L1368.93,248.053L1368.93,460.694L1429.91,460.694L1429.91,156.153L1338.3,156.153L1255.4,373.072ZM1250,1989.06C1658.17,1989.06 1989.06,1658.17 1989.06,1250C1989.06,841.83 1658.16,510.935 1250,510.935C841.83,510.935 510.935,841.83 510.935,1250C510.935,1658.17 841.83,1989.06 1250,1989.06ZM1250,1250L558.482,1250C558.482,868.094 868.089,558.482 1250,558.482L1250,1250ZM1250,1250L1941.51,1250C1941.51,1631.91 1631.91,1941.52 1250,1941.52L1250,1250ZM706.876,544.846C682.378,521.035 644.51,513.858 608.958,535.899C615.749,518.302 612.975,500.343 609.369,490.433C594.054,462.505 588.708,459.009 576.085,448.418C535.222,414.13 492.219,443.403 461.462,480.057L312.857,657.153L546.461,853.174L703.175,666.415C738.983,623.742 744.519,581.436 706.876,544.846ZM493.934,523.889C504.275,511.562 527.645,512.068 542.675,524.676C559.199,538.542 559.239,558.201 548.141,571.421L459.892,676.591L404.677,630.257L493.934,523.889ZM650.949,647.955L557.905,758.837L499.561,709.88L593.357,598.096C603.948,585.473 627.564,581.797 643.492,595.167C661.521,610.287 663.306,633.231 650.949,647.955Z" style="fill:rgb(106,115,120);"/>
    </g>
</svg>
