<?xml version="1.0" encoding="UTF-8" standalone="no"?>
<!DOCTYPE svg PUBLIC "-//W3C//DTD SVG 1.1//EN" "http://www.w3.org/Graphics/SVG/1.1/DTD/svg11.dtd">
<svg width="100%" height="100%" viewBox="0 0 200 120" version="1.1" xmlns="http://www.w3.org/2000/svg" xmlns:xlink="http://www.w3.org/1999/xlink" xml:space="preserve" xmlns:serif="http://www.serif.com/" style="fill-rule:evenodd;clip-rule:evenodd;stroke-linejoin:round;stroke-miterlimit:2;">
    <g transform="matrix(0.866119,0,0,0.866119,13.9788,8.03236)">
        <path d="M15.764,75.293L31.021,44.583L72.542,44.583L72.542,32.516L126.451,32.516L126.451,44.486L182.872,44.486L167.858,75.3L126.657,75.3L126.657,87.485L72.459,87.485L72.459,75.575L15.764,75.293ZM33.71,68.614L78.466,68.921L78.466,80.733L120.454,80.733L120.454,68.672L156.681,68.672L165.117,51.163L120.684,51.163L120.684,39.579L78.445,39.579L78.445,51.346L42.551,51.346L33.71,68.614Z" style="fill:rgb(106,115,120);"/>
    </g>
</svg>
