<?xml version="1.0" encoding="UTF-8" standalone="no"?>
<!DOCTYPE svg PUBLIC "-//W3C//DTD SVG 1.1//EN" "http://www.w3.org/Graphics/SVG/1.1/DTD/svg11.dtd">
<svg width="100%" height="100%" viewBox="0 0 200 120" version="1.1" xmlns="http://www.w3.org/2000/svg" xmlns:xlink="http://www.w3.org/1999/xlink" xml:space="preserve" xmlns:serif="http://www.serif.com/" style="fill-rule:evenodd;clip-rule:evenodd;stroke-linejoin:round;stroke-miterlimit:2;">
    <g transform="matrix(0.215682,0,0,0.215682,13.731,-40.1017)">
        <path d="M800,404.867L800,404.8C799.833,404.233 797.867,404 794.233,403.967L741.067,403.233C659.767,402.533 508.467,401.133 501.6,401.133L499.933,401.133C491.986,400.737 484.035,401.845 476.5,404.4L473.433,405.3C464.875,408.312 455.972,410.238 446.933,411.033C437.5,411.367 401.5,411.333 400,411.333C398.5,411.333 362.467,411.333 353.033,411.067C343.994,410.275 335.091,408.349 326.533,405.333L323.533,404.433C315.964,401.874 307.98,400.765 300,401.167L298.533,401.167C291.633,401.167 140.333,401.833 59.067,402.6L5.7,403.267C2.033,403.267 -0.067,403.533 -0.033,404.133L3,404.9C14.2,407.2 25.567,408.567 37,409.033C58.767,409.467 218.167,413.467 222,413.533C230.6,413.3 239.167,414.833 247.167,418L297.067,418C297.067,418 276.933,419.167 276.633,420.433L275.367,420.433C270.367,420.433 255.167,420.433 246.567,420.033C246.567,420.033 245.933,422.433 254.7,422.433C257.767,424.5 261,426.467 263.9,428.1L306.8,428.1C306.8,428.1 289.933,429.1 289.6,430.367C287.6,430.367 280.267,430.167 273.267,429.967L263.433,429.667C263.433,429.667 262.933,431.8 271,431.833L272.367,432.7C288.467,439.933 305.533,444.8 323.033,447.133C329.7,448.433 336.367,449.3 343.133,449.8C343.133,449.8 351.3,450.533 349.867,450.467C330.797,449.697 311.833,447.232 293.2,443.1C278.135,439.431 263.76,433.353 250.633,425.1C243.329,420.25 234.798,417.568 226.033,417.367C220.367,417 37.767,409.8 37.367,409.8C25.641,409.394 13.985,407.831 2.567,405.133L0,404.167C0,404.667 1.267,406 2.333,406.967C8,411.967 29.333,422.333 41.8,425.4C63.467,430.633 196.633,447.567 220.3,450.233L233.367,451.7C269.133,455.567 314.1,460.5 337,462.833C341.352,463.619 345.83,463.368 350.067,462.1C366.041,456.191 382.97,453.287 400,453.533C417.078,453.401 434.044,456.313 450.1,462.133C454.283,463.386 458.702,463.637 463,462.867C485.933,460.567 531,455.533 566.467,451.633L579.7,450.167C603.367,447.533 736.533,431.233 758.167,426C770.667,423 792,412.6 797.633,407.6C798.569,406.849 799.359,405.934 799.967,404.9L800,404.9L800,404.833L800,404.867ZM391.167,438.033C364.667,438.033 338.467,437.667 330.833,435.767C312.667,431.267 304.2,422.967 302.767,420.433C301.333,417.933 301.7,417.967 303.933,417.967L495.933,417.967C498.2,417.967 498.333,418.2 497.067,420.467C495.8,422.7 487.267,431.267 469.033,435.767C461.4,437.667 435.2,437.967 408.7,438.033L391.167,438.033ZM797.433,405.667C786.016,408.375 774.36,409.95 762.633,410.367C762.233,410.367 579.433,416.933 573.933,417.367C565.168,417.568 556.637,420.25 549.333,425.1C536.216,433.349 521.854,439.428 506.8,443.1C488.157,447.245 469.182,449.722 450.1,450.5C448.667,450.5 456.833,449.8 456.833,449.8C463.569,449.304 470.269,448.413 476.9,447.133C494.394,444.778 511.458,439.917 527.567,432.7L529.167,431.833C537.2,431.833 536.767,429.667 536.767,429.667L526.933,430C519.667,430.167 512.2,430.333 510.333,430.333C510,429.133 493.333,428.1 493.333,428.1L536.167,428.1C539.221,426.323 542.223,424.455 545.167,422.5C553.967,422.5 553.367,420.1 553.367,420.1C543.347,420.363 533.323,420.474 523.3,420.433C523,419.2 504.3,418.033 504.3,418.033L552.533,418.033C560.594,414.868 569.21,413.36 577.867,413.6L762.967,409.8C774.394,409.33 785.764,407.937 796.967,405.633L799.233,405.067L797.433,405.667ZM398.7,423.4L401.7,423.4L395.867,427.567L395.867,430.867L391.467,430.867L391.467,427.633L385.167,423.4L390.333,423.4L394.6,426.067L398.7,423.4ZM425.667,429.5L435.733,429.5L435.733,430.833L421.267,430.833L421.267,423.367L425.667,423.367L425.667,429.5ZM443.667,429.5L454.1,429.5L454.1,430.833L439.367,430.833L439.367,423.367L453.967,423.367L453.967,424.733L443.667,424.733L443.667,426.433L453.767,426.433L453.767,427.8L443.667,427.8L443.667,429.5ZM359.6,423.4L364,423.4L364,430.867L359.5,430.867L359.5,427.833L350.233,427.833L350.233,430.833L345.833,430.833L345.833,423.4L350.233,423.4L350.233,426.4L359.5,426.4L359.6,423.4ZM379.533,427.6L385.2,430.867L380.2,430.867C380.2,430.867 375.667,427.633 374.6,426.8C379.1,426.967 379.833,426.467 379.833,425.733C379.833,425 376.3,424.533 372.3,424.767L372.3,430.867L367.633,430.867L367.633,423.433L377.8,423.433C382.8,423.433 384.333,424.467 384.333,425.533C384.333,426.467 382.5,427.333 379.533,427.6ZM470,425.733C470,424.967 466.467,424.533 462.467,424.767L462.467,430.933L457.8,430.933L457.8,423.5L467.867,423.5C472.867,423.5 474.4,424.633 474.4,425.6C474.4,426.533 472.567,427.4 469.6,427.6L475.267,430.867L470.267,430.867C470.267,430.867 465.733,427.633 464.667,426.8C469.133,426.967 470,426.467 470,425.733ZM418.1,428.633C418.1,430.533 414,431.167 409.733,431.167C407.415,431.161 405.099,431.005 402.8,430.7L403.267,429.1C405.357,429.47 407.479,429.626 409.6,429.567C413.167,429.567 413.4,429.133 413.4,428.667C413.4,428.2 412.4,427.9 410.8,427.9L407.533,427.533C404.333,427.133 403.033,427 403.033,425.1C403.033,423.2 407.167,422.867 409.8,422.867C412.121,422.933 414.436,423.134 416.733,423.467L416.4,424.9C414.591,424.624 412.764,424.479 410.933,424.467C408.1,424.467 407.5,424.6 407.5,425.133C407.5,425.667 408.4,425.9 409.833,425.9L413.6,426.167C416.6,426.6 418.033,427.333 418.1,428.633ZM329.167,427C329.167,428.733 333.4,429.467 336.2,429.467C339,429.467 341.667,429.133 342.3,429.133L341.833,430.7C341.033,430.767 338.3,431.033 335.3,431.033C329.7,431.033 324.7,429.7 324.7,427C324.7,424.3 329.7,422.933 335.3,422.933C338.567,422.933 341.133,423.267 341.833,423.267L342.3,424.833C340.273,424.627 338.237,424.516 336.2,424.5C333.267,424.5 329.167,425.267 329.167,427ZM362.4,353.667L344.067,337.1L356.267,337.1L363.233,343L370.833,349.533L372.233,350.767L373.567,349.567L387.667,337.2L392.4,337.2L375.4,353.533L374.767,354.2L374.767,368.567L363.1,368.567L363.1,354.3L362.433,353.667L362.4,353.667ZM541.633,368.567L492.533,368.567L492.533,337.067L503.4,337.067L503.4,364.667L541.633,364.667L541.633,368.567ZM614.5,368.367L564.6,368.367L564.6,337.133L613.867,337.133L613.867,341L575.1,341L575.1,350.733L613.233,350.733L613.233,354.733L575.1,354.733L575.1,364.5L614.5,364.5L614.5,368.367ZM200.7,368.433L189.6,368.433L189.6,337L200.7,337L200.7,350.9L231.167,350.9L231.167,337L242.2,337L242.2,368.433L231.2,368.433L231.2,354.667L200.667,354.667L200.667,368.433L200.7,368.433ZM285.5,368.333L274.3,368.333L274.3,336.833L303.733,336.833C309.333,336.5 314.967,337.467 320.1,339.667C322.372,340.631 323.91,342.804 324.067,345.267C324.033,348.867 321.4,352.4 312.033,353.4L309.367,353.733L311.4,355.333C314.4,357.767 321.8,365.167 325.267,368.433L325.6,368.533L312.767,368.533C310.867,366.433 300.333,356.867 295.767,352.2C300.162,352.049 304.536,351.502 308.833,350.567C310.738,349.952 312.062,348.2 312.133,346.2C312.087,344.958 311.44,343.813 310.4,343.133C307.733,340.9 301.567,340.9 294.367,340.9L285.5,340.9L285.5,368.333ZM449,360.267C449,358.367 447.367,357.467 445.733,357C443.514,356.41 441.251,355.997 438.967,355.767C435.135,355.303 431.312,354.77 427.5,354.167C423.549,353.807 419.703,352.698 416.167,350.9C414.129,349.721 412.926,347.484 413.067,345.133C413.033,341.833 415.867,339.733 420.467,338.367C425.333,337.167 430.367,336.6 435.367,336.7C443.167,336.8 450.967,337.367 458.7,338.5L457.933,342.3C451.993,341.224 445.97,340.666 439.933,340.633C436.637,340.492 433.335,340.749 430.1,341.4C428.067,341.967 426.833,343.2 426.833,344.667C426.965,346.293 428.167,347.646 429.767,347.967C431.76,348.528 433.803,348.896 435.867,349.067C439.333,349.4 444.167,350.067 448.767,350.733C452.627,351.046 456.382,352.146 459.8,353.967C461.853,355.102 463.113,357.288 463.067,359.633C463.1,362.833 460.2,365.3 454.933,367C448.522,368.709 441.9,369.494 435.267,369.333L435.333,369.133C427.812,369.07 420.305,368.479 412.867,367.367L413.833,362.867C420.667,364.367 427.667,365.133 434.667,365.133C438.646,365.408 442.64,364.863 446.4,363.533C447.848,363.077 448.88,361.781 449,360.267ZM106.1,352.9C106.1,347.633 109.533,343.867 115.367,341.1C122.507,338.074 130.215,336.618 137.967,336.833C144.333,336.867 150.7,337.333 157,338.167L157.9,342.467C152.135,341.772 146.339,341.372 140.533,341.267C135.529,341.227 130.56,342.097 125.867,343.833C121.433,345.567 117.767,348.4 117.767,352.8C117.767,357.167 121.433,360.033 125.867,361.767C130.533,363.5 135.533,364.367 140.533,364.3C146.327,364.205 152.112,363.816 157.867,363.133L156.733,367.533C150.435,368.385 144.089,368.831 137.733,368.867C130.068,369.07 122.445,367.65 115.367,364.7C109.367,361.933 106.1,358.033 106.1,352.9ZM653.467,368.667L642.4,368.667L642.4,337.133L671.833,337.133C677.438,336.8 683.043,337.781 688.2,340C690.461,340.959 691.998,343.116 692.167,345.567C692.133,349.2 689.5,352.733 680.133,353.733L677.467,354L679.5,355.667C682.5,358.067 689.9,365.3 693.367,368.733L693.367,368.767L680.733,368.767C678.833,366.667 668.267,357.1 663.733,352.433C668.142,352.288 672.528,351.73 676.833,350.767C678.72,350.153 680.03,348.416 680.1,346.433C680.054,345.192 679.407,344.047 678.367,343.367C675.633,341.1 669.533,341.1 662.333,341.1L653.467,341.1L653.467,368.667Z" style="fill:rgb(106,115,120);fill-rule:nonzero;"/>
    </g>
    <g transform="matrix(0.280553,0,0,0.280553,38.0787,78.7508)">
        <path d="M2.429,44.967C1.375,44.967 0.519,44.092 0.519,43.011L0.519,19.053C0.519,17.977 1.375,17.102 2.429,17.102L53.314,17.107C60.144,17.107 66.563,18.727 71.381,21.444C76.017,24.069 78.575,27.477 78.575,31.065C78.575,34.641 76.017,38.059 71.381,40.674C66.563,43.397 60.073,44.967 53.244,44.967L2.429,44.967ZM19.956,22.439C18.825,22.439 17.912,23.395 17.912,24.575L17.912,37.5C17.912,38.674 18.825,39.635 19.956,39.635L46.037,39.641C53.893,39.641 60.051,35.836 60.051,31.048C60.051,26.26 53.893,22.428 46.037,22.428L19.956,22.439ZM187.502,44.967C186.453,44.967 185.594,44.092 185.594,43.011L185.594,19.053C185.594,17.977 186.453,17.102 187.502,17.102L238.381,17.227C245.219,17.227 251.632,18.732 256.448,21.444C261.09,24.069 263.645,27.477 263.645,31.065C263.645,34.641 261.09,38.059 256.448,40.674C251.632,43.397 245.219,44.891 238.392,44.891L187.502,44.967ZM205.031,22.439C203.9,22.439 202.987,23.395 202.987,24.575L202.987,37.495C202.987,38.674 203.9,39.635 205.031,39.635L231.109,39.592C238.968,39.592 245.122,35.836 245.122,31.048C245.122,26.26 238.968,22.51 231.109,22.51L205.031,22.439ZM132.079,45.811C127.938,45.811 124.97,45.717 122.089,45.62L121.893,45.615C113.148,45.332 105.071,43.702 99.164,41.011C93.282,38.342 90.043,34.831 90.043,31.135C90.043,23.538 104.033,17.172 121.893,16.65C125.247,16.553 128.796,16.455 132.079,16.455C135.362,16.455 138.911,16.553 142.265,16.65C160.125,17.172 174.104,23.538 174.104,31.135C174.104,34.831 170.865,38.342 164.995,41.011C159.082,43.702 151.004,45.332 142.265,45.615L142.058,45.62C139.183,45.717 136.21,45.811 132.079,45.811ZM132.079,21.782C130.252,21.782 128.323,21.84 126.502,21.895C115.849,22.215 108.115,26.102 108.115,31.135C108.115,36.13 115.849,40.016 126.502,40.375L126.546,40.375L126.6,40.381C128.252,40.43 129.818,40.484 132.079,40.484C134.335,40.484 135.906,40.43 137.558,40.381L137.596,40.375L137.667,40.375C148.309,40.016 156.027,36.13 156.027,31.135C156.027,26.102 148.298,22.215 137.656,21.895C135.83,21.84 133.905,21.782 132.079,21.782ZM304.153,45.022L303.333,45.022C284.331,44.936 274.282,40.109 274.282,31.071C274.282,23.754 287.048,17.629 303.354,17.123C304.381,17.085 305.512,17.069 306.904,17.069C307.872,17.069 308.844,17.08 309.811,17.085L310.116,17.085C310.975,17.096 311.823,17.102 312.665,17.102L353.826,17.112C354.201,17.112 354.908,17.232 354.908,18.139L354.908,21.444C354.908,22.428 354.076,22.434 353.826,22.434L313.018,22.428C311.453,22.428 309.834,22.477 308.181,22.537C304.415,22.678 292.136,23.846 292.136,31.071C292.136,36.168 298.735,39.26 308.181,39.635L308.224,39.641C309.675,39.696 311.045,39.75 313.018,39.75L335.221,39.755C336.379,39.755 337.325,39.479 337.325,38.255L337.325,35.059C337.325,33.836 336.379,33.413 335.221,33.413L312.823,33.423C312.437,33.423 311.887,33.168 311.887,32.461L311.887,29.635C311.887,29.184 312.23,28.619 312.948,28.619L353,28.623C354.065,28.623 354.929,29.495 354.929,30.565L354.929,43.06C354.929,44.125 354.065,45 353,45L312.665,44.995C312.17,44.995 311.274,45 310.209,45.006L309.469,45.006C307.654,45.016 305.55,45.022 304.153,45.022ZM369.898,44.962C368.86,44.962 368.012,44.115 368.012,43.082L368.012,18.998C368.012,17.96 368.86,17.118 369.898,17.118L438.877,17.118C439.752,17.118 439.975,18.041 439.975,18.215L439.975,21.309C439.975,22.287 439.05,22.412 438.877,22.412L388.405,22.439C386.96,22.439 385.769,23.233 385.769,24.684L385.769,26.516C385.769,27.977 386.96,28.619 388.405,28.619L436.328,28.641C437.3,28.641 437.431,29.565 437.431,29.745L437.431,32.298C437.431,33.331 436.502,33.402 436.328,33.402L388.313,33.407C386.856,33.407 385.671,34.196 385.671,35.657L385.671,37.559C385.671,39.01 386.856,39.635 388.313,39.635L439.8,39.614C440.877,39.614 440.904,40.538 440.904,40.711L440.904,43.854C440.904,44.028 440.801,44.952 439.8,44.952L369.898,44.962Z" style="fill:rgb(106,115,120);"/>
    </g>
</svg>
