<?xml version="1.0" encoding="UTF-8" standalone="no"?>
<!DOCTYPE svg PUBLIC "-//W3C//DTD SVG 1.1//EN" "http://www.w3.org/Graphics/SVG/1.1/DTD/svg11.dtd">
<svg width="100%" height="100%" viewBox="0 0 200 120" version="1.1" xmlns="http://www.w3.org/2000/svg" xmlns:xlink="http://www.w3.org/1999/xlink" xml:space="preserve" xmlns:serif="http://www.serif.com/" style="fill-rule:evenodd;clip-rule:evenodd;stroke-linejoin:round;stroke-miterlimit:2;">
    <g transform="matrix(0.169374,0,0,0.169374,45.7223,5.73531)">
        <path d="M188.26,110.035L248.61,110.035L248.61,530.734L188.26,530.734L188.26,110.035ZM446.975,110.035L446.975,160.796L493.764,160.796L493.764,530.734L552.238,530.734L552.238,160.796L598.268,160.796L598.268,110.035L446.975,110.035ZM42.655,530.734L101.13,530.734L101.13,339.875L150.931,339.875L150.931,289.81L101.13,289.81L101.13,160.796L166.097,160.796L166.097,110.035L42.655,110.035L42.655,530.734ZM454.727,503.176C454.739,512.395 454.745,521.581 454.742,530.734L400.048,530.734C400,514.818 399.963,498.824 399.939,482.752C399.894,466.704 399.818,450.628 399.645,434.607C399.299,402.597 398.565,370.712 396.892,339.875L332.563,339.875L332.563,530.734L280.043,530.734L280.043,110.035L403.445,110.035C410.917,124.508 417.255,139.539 422.401,154.992C427.725,170.963 432.131,187.225 435.598,203.699C439.183,220.447 442.033,237.716 444.324,255.288C446.616,272.854 448.358,290.826 449.705,308.959C451.051,327.083 452.01,345.521 452.707,363.977C453.404,382.414 453.849,401.114 454.14,419.672C454.431,438.185 454.577,456.994 454.654,475.437C454.693,484.707 454.717,493.953 454.727,503.176ZM393.166,289.81C388.466,241.708 380.404,197.186 366.445,160.796L332.563,160.796L332.563,289.81L393.166,289.81Z" style="fill:rgb(106,115,120);fill-rule:nonzero;"/>
    </g>
</svg>
