<?xml version="1.0" encoding="UTF-8" standalone="no"?>
<!DOCTYPE svg PUBLIC "-//W3C//DTD SVG 1.1//EN" "http://www.w3.org/Graphics/SVG/1.1/DTD/svg11.dtd">
<svg width="100%" height="100%" viewBox="0 0 200 120" version="1.1" xmlns="http://www.w3.org/2000/svg" xmlns:xlink="http://www.w3.org/1999/xlink" xml:space="preserve" xmlns:serif="http://www.serif.com/" style="fill-rule:evenodd;clip-rule:evenodd;stroke-linejoin:round;stroke-miterlimit:2;">
    <g id="svg_6" transform="matrix(0.686276,0,0,0.686276,5.38913,18.1028)">
        <path d="M211.878,29.15C212.378,34.55 212.578,41.65 212.678,49.35C212.478,62.05 211.378,70.65 210.778,76.55C210.378,80.55 208.678,92.85 206.478,99.15C203.478,107.85 200.778,110.35 197.578,112.95C191.778,117.75 182.178,119.15 180.178,119.55C169.378,121.55 147.478,121.85 137.878,121.85C128.178,121.85 106.378,121.45 95.578,119.55C93.578,119.15 83.978,117.65 78.178,112.95C74.978,110.35 72.278,107.85 69.278,99.15C67.078,92.85 65.378,80.65 64.978,76.55C64.378,70.55 63.278,62.05 63.078,49.35C62.978,41.75 63.078,34.65 63.678,29.15C65.678,9.15 79.078,4.95 90.778,2.95C96.678,1.95 107.178,1.15 113.878,0.85C119.778,0.45 133.578,0.25 137.778,0.25C141.978,0.25 155.778,0.45 161.678,0.85C168.378,1.15 178.878,1.95 184.778,2.95C196.478,4.95 209.878,9.15 211.878,29.15ZM204.478,62.75C205.178,53.05 205.078,37.45 203.978,29.15C202.378,16.65 196.178,10.35 182.878,7.95C176.678,6.85 168.278,6.05 160.378,5.65C154.078,5.25 143.578,4.95 137.778,5.05C131.878,5.05 121.478,5.25 115.078,5.65C107.178,6.05 98.778,6.85 92.578,7.95C79.278,10.25 73.078,16.55 71.578,29.15C70.478,37.55 70.378,53.15 71.078,62.75C72.178,78.75 73.678,88.35 75.678,95.25C77.478,101.25 79.678,105.35 82.878,108.25C88.278,113.15 95.678,114.15 100.078,114.85C109.478,116.25 125.278,116.75 137.778,116.75C150.178,116.75 166.078,116.25 175.478,114.85C179.878,114.15 187.278,113.15 192.678,108.25C195.878,105.35 198.078,101.35 199.878,95.25C201.878,88.35 203.278,78.75 204.478,62.75ZM172.178,10.55C172.178,10.55 175.578,10.65 177.078,10.75C179.078,10.85 180.778,11.05 182.478,11.25C182.478,11.25 180.478,42.85 179.578,56.15C178.678,70.25 176.978,93.85 175.478,111.75C175.478,111.75 172.578,112.15 167.778,112.45C162.778,112.75 160.578,112.75 160.578,112.75C158.578,104.85 155.978,93.95 153.078,89.25C150.678,85.45 147.078,85.05 144.978,84.75C141.778,84.25 139.078,84.25 137.778,84.25C136.578,84.25 133.778,84.35 130.578,84.75C128.478,85.05 124.878,85.45 122.478,89.25C119.578,93.95 117.078,104.85 114.978,112.75C114.978,112.75 112.678,112.75 107.678,112.45C102.878,112.25 99.978,111.75 99.978,111.75C98.478,93.85 96.778,70.15 95.878,56.15C94.978,42.75 92.978,11.25 92.978,11.25C94.678,11.05 96.278,10.85 98.378,10.75C99.878,10.65 103.278,10.55 103.278,10.55C106.678,25.85 108.078,32.85 110.878,43.95C113.478,54.55 115.578,64.45 119.178,69.25C122.778,74.15 127.678,75.15 130.978,75.55C132.678,75.75 133.978,75.85 137.678,75.85C141.378,75.85 142.678,75.75 144.378,75.55C147.678,75.15 152.578,74.15 156.178,69.25C159.778,64.45 161.878,54.55 164.578,43.95C167.378,32.95 168.778,25.85 172.178,10.55Z" style="fill:rgb(106,115,120);"/>
    </g>
</svg>
