<?xml version="1.0" encoding="UTF-8" standalone="no"?>
<!DOCTYPE svg PUBLIC "-//W3C//DTD SVG 1.1//EN" "http://www.w3.org/Graphics/SVG/1.1/DTD/svg11.dtd">
<svg width="100%" height="100%" viewBox="0 0 200 120" version="1.1" xmlns="http://www.w3.org/2000/svg" xmlns:xlink="http://www.w3.org/1999/xlink" xml:space="preserve" xmlns:serif="http://www.serif.com/" style="fill-rule:evenodd;clip-rule:evenodd;stroke-linejoin:round;stroke-miterlimit:2;">
    <g id="_2014_Jeep_Warranty" serif:id="2014_Jeep_Warranty" transform="matrix(0.181831,0,0,-0.181831,-233.862,134.19)">
        <path d="M2043.45,247.132L2043.45,490.057L2104.03,490.057L2104.03,480.203C2104.03,467.059 2109.33,472.479 2113.6,477.601C2114.32,478.458 2127.82,494.984 2158.23,494.984C2188.55,494.984 2235.71,473.867 2235.71,399.224C2235.71,341.488 2207.57,299.248 2158.98,299.248C2132.2,299.248 2116.72,309.79 2113.18,314.045C2109.64,318.24 2104.72,318.972 2104.72,314.045L2104.72,247.132L2043.45,247.132ZM2103.3,397.1C2102.65,361.212 2110.4,342.203 2139.98,342.203C2169.52,342.203 2173.76,374.584 2173.76,399.224C2173.76,423.881 2168.15,447.817 2137.12,447.817C2118.09,447.817 2104.03,433.025 2103.3,397.1ZM1575.2,568.9L1640.69,568.9L1640.69,397.1C1640.69,367.548 1628,305.568 1537.19,305.568C1446.36,305.568 1436.51,363.337 1436.51,395.701L1436.51,427.383L1499.88,427.383L1499.88,396.417C1499.88,377.408 1512.56,359.814 1536.48,359.814C1560.42,359.814 1575.2,373.186 1575.2,395.701L1575.2,568.9ZM1738.96,497.098C1790.39,497.098 1835.43,477.39 1835.43,386.557L1713.63,386.557C1713.63,357.689 1725.59,345.716 1746.71,345.716C1767.84,345.716 1774.88,362.627 1774.88,362.627L1834.74,362.627C1834.74,336.566 1798.83,301.362 1744.6,302.061C1682.66,302.061 1652.37,347.83 1652.37,395.007C1652.37,442.202 1679.11,497.098 1738.96,497.098ZM1777.65,423.16C1777.65,440.782 1767.81,457.676 1745.28,457.676C1723.45,457.676 1715.7,442.202 1715.7,423.16L1777.65,423.16ZM1933.67,497.098C1985.1,497.098 2030.13,477.39 2030.13,386.557L1908.33,386.557C1908.33,357.689 1920.3,345.716 1941.44,345.716C1962.55,345.716 1969.59,362.627 1969.59,362.627L2029.46,362.627C2029.46,336.566 1993.54,301.362 1939.33,302.061C1877.35,302.061 1847.07,347.83 1847.07,395.007C1847.07,442.202 1873.84,497.098 1933.67,497.098ZM1972.36,423.16C1972.36,440.782 1962.51,457.676 1939.98,457.676C1918.16,457.676 1910.39,442.202 1910.39,423.16L1972.36,423.16Z" style="fill:rgb(106,115,120);"/>
    </g>
</svg>
