<?xml version="1.0" encoding="UTF-8" standalone="no"?>
<!DOCTYPE svg PUBLIC "-//W3C//DTD SVG 1.1//EN" "http://www.w3.org/Graphics/SVG/1.1/DTD/svg11.dtd">
<svg width="100%" height="100%" viewBox="0 0 200 120" version="1.1" xmlns="http://www.w3.org/2000/svg" xmlns:xlink="http://www.w3.org/1999/xlink" xml:space="preserve" xmlns:serif="http://www.serif.com/" style="fill-rule:evenodd;clip-rule:evenodd;stroke-linejoin:round;stroke-miterlimit:2;">
    <g transform="matrix(0.138005,0,0,0.138005,44.7978,4.61132)">
        <path d="M733.514,197.297C730.811,194.054 727.027,190.27 724.324,187.027C643.243,100 510.811,81.081 399.459,81.081C287.027,81.081 150.811,100 70.811,192.432C69.73,194.054 68.108,195.676 67.027,197.297C28.108,244.324 3.784,310.811 3.784,400.541C3.784,677.297 228.649,721.622 399.459,721.622C570.811,721.622 796.216,677.297 796.216,400.541C796.216,310.811 772.432,243.784 733.514,197.297ZM141.622,241.081C195.135,158.919 296.216,138.919 399.459,138.919C502.703,138.919 602.162,157.838 656.216,238.378C657.297,240 658.378,242.162 659.459,244.324C567.027,298.919 462.162,301.081 399.459,436.216C330.811,304.865 227.027,303.784 136.216,251.351C137.838,248.108 140,244.865 141.622,241.081ZM399.459,663.784C245.946,664.865 102.703,620.541 102.703,400.541C102.703,384.324 102.703,367.568 105.405,353.514C105.946,350.27 107.027,347.027 107.568,343.784C158.919,362.162 209.73,379.459 261.622,396.757C322.162,421.622 362.703,457.297 399.459,537.297C436.216,457.297 475.676,416.757 536.757,391.892C589.189,373.514 640.541,354.595 692.973,336.216C693.514,337.297 693.514,338.919 694.054,340C696.757,357.838 697.838,378.919 697.838,400.541C698.378,620.541 552.973,665.405 399.459,663.784Z" style="fill:rgb(106,115,120);fill-rule:nonzero;"/>
    </g>
</svg>
