<?xml version="1.0" encoding="UTF-8" standalone="no"?>
<!DOCTYPE svg PUBLIC "-//W3C//DTD SVG 1.1//EN" "http://www.w3.org/Graphics/SVG/1.1/DTD/svg11.dtd">
<svg width="100%" height="100%" viewBox="0 0 200 120" version="1.1" xmlns="http://www.w3.org/2000/svg" xmlns:xlink="http://www.w3.org/1999/xlink" xml:space="preserve" xmlns:serif="http://www.serif.com/" style="fill-rule:evenodd;clip-rule:evenodd;stroke-linejoin:round;stroke-miterlimit:2;">
    <g transform="matrix(0.097,0,0,0.0969496,51.5,11.5)">
        <g id="path35">
            <path d="M268.47,943.809C108.741,860.042 0,692.508 0,500C0,307.492 108.741,140.479 268.47,56.712C337.669,20.291 416.753,0 500.52,0C583.767,0 662.331,20.291 732.05,56.712C891.259,140.479 1000,307.492 1000,500C1000,692.508 891.259,860.042 732.05,943.288C662.331,979.709 583.767,1000.52 500.52,1000.52C416.753,1000.52 337.669,979.709 268.47,943.809ZM268.47,113.944C137.357,193.028 49.948,336.108 49.948,500C49.948,577.523 69.719,650.884 104.058,714.36L268.47,585.848L430.281,459.417L486.993,49.948C406.868,52.549 332.466,75.442 268.47,113.944ZM268.47,677.94L119.147,739.334C156.608,799.168 207.596,849.636 268.47,886.056C336.108,927.159 415.713,950.572 500.52,950.572C584.807,950.572 663.892,927.159 732.05,886.056C792.924,849.636 844.433,798.647 881.894,738.293L732.05,677.419L499.48,583.247L268.47,677.94ZM732.05,113.944C668.054,75.442 593.132,52.549 514.048,49.948L571.28,459.417L732.05,584.807L896.462,713.319C930.801,649.844 950.052,577.523 950.052,500C950.052,336.629 862.643,193.028 732.05,113.944Z" style="fill:rgb(106,115,120);"/>
        </g>
    </g>
</svg>
