<?xml version="1.0" encoding="UTF-8" standalone="no"?>
<!DOCTYPE svg PUBLIC "-//W3C//DTD SVG 1.1//EN" "http://www.w3.org/Graphics/SVG/1.1/DTD/svg11.dtd">
<svg width="100%" height="100%" viewBox="0 0 200 120" version="1.1" xmlns="http://www.w3.org/2000/svg" xmlns:xlink="http://www.w3.org/1999/xlink" xml:space="preserve" xmlns:serif="http://www.serif.com/" style="fill-rule:evenodd;clip-rule:evenodd;stroke-linejoin:round;stroke-miterlimit:2;">
    <g transform="matrix(0.0586757,0,0,0.0586757,44.1145,13.2406)">
        <path d="M1110.05,860.597C1122.53,858.329 1128.19,848.502 1128.19,839.431C1128.19,829.982 1123.28,819.4 1108.92,817.51C1107.79,817.132 1102.12,817.132 1099.85,817.132L973.612,817.132C969.454,817.132 960.005,817.132 953.202,816.376C915.785,811.085 898.777,779.337 898.777,752.124C898.777,718.865 921.454,692.786 953.958,688.25C958.871,687.495 964.919,687.117 972.856,687.117L1162.96,687.117L1162.96,731.715L975.879,731.715C968.698,731.715 965.297,732.093 962.273,732.849C951.69,735.872 947.911,744.943 947.911,751.746C947.911,759.305 951.69,768.376 961.895,771.022C964.163,771.778 970.588,772.156 976.257,772.156L1105.89,772.156C1108.54,772.156 1114.59,772.156 1121.77,772.912C1158.43,776.313 1177.71,808.817 1177.71,839.053C1177.71,868.534 1159.19,902.171 1118.75,905.951C1116.48,906.329 1104.76,906.329 1103.25,906.329L904.824,906.329L904.824,860.975L1099.85,860.975C1102.49,860.975 1108.54,860.975 1110.05,860.597ZM740.415,860.597C753.266,858.329 758.557,848.502 758.557,839.431C758.557,829.982 753.644,819.4 739.281,817.51C738.148,817.132 732.478,817.132 730.211,817.132L603.975,817.132C599.817,817.132 590.368,817.132 583.565,816.376C546.148,811.085 529.14,779.337 529.14,752.124C529.14,718.865 551.817,692.786 584.321,688.25C589.234,687.495 595.282,687.117 603.219,687.117L793.328,687.117L793.328,731.715L606.242,731.715C599.061,731.715 595.66,732.093 592.636,732.849C582.053,735.872 578.274,744.943 578.274,751.746C578.274,759.305 582.053,768.376 592.258,771.022C594.526,771.778 600.951,772.156 606.62,772.156L736.258,772.156C738.903,772.156 744.951,772.156 752.132,772.912C788.793,776.313 808.069,808.817 808.069,839.053C808.069,868.534 789.549,902.171 749.108,905.951C746.84,906.329 735.124,906.329 733.612,906.329L535.187,906.329L535.187,860.975L730.588,860.975C732.856,860.975 738.903,860.975 740.415,860.597ZM433.518,685.605L433.518,907.463L384.385,907.463L384.385,685.605L433.518,685.605ZM275.912,907.463L213.928,907.463L49.141,741.164L49.141,907.463L0.007,907.463L0.007,685.605L63.125,685.605L226.779,851.148L226.779,685.605L275.912,685.605L275.912,907.463ZM1856.13,685.605L1904.88,685.605L1904.88,907.463L1842.9,907.463L1678.49,741.164L1678.49,907.463L1629.36,907.463L1629.36,685.605L1692.48,685.605L1856.13,851.148L1856.13,685.605ZM1373.49,685.605L1426.4,685.605L1564.73,907.463L1505.39,907.463L1480.82,867.778L1319.44,867.778L1294.87,907.463L1235.15,907.463L1373.49,685.605ZM1455.5,825.825L1400.32,736.628L1344.76,825.825L1455.5,825.825ZM273.267,559.747L272.133,562.77L55.944,562.77L55.944,536.692L145.897,526.109C201.456,519.684 213.172,495.117 228.29,464.125L232.07,456.566C362.085,179.149 644.793,-0 952.824,-0C1260.48,-0 1543.56,179.149 1673.58,455.81L1677.36,463.369C1692.48,494.361 1704.19,518.928 1759.75,525.353L1849.7,535.936L1849.7,562.015L1633.14,562.015L1632.38,559.747C1533.74,270.614 1260.48,76.346 952.824,76.346C645.171,76.346 372.29,270.614 273.267,559.747ZM1633.14,1031.43L1850.08,1031.43L1850.08,1057.51L1760.13,1068.09C1704.57,1074.52 1692.85,1099.08 1677.74,1130.08L1673.96,1137.63C1543.94,1414.67 1260.86,1593.82 953.202,1593.82C645.549,1593.82 362.463,1414.67 232.448,1137.26L228.668,1129.7C213.55,1098.71 201.834,1074.14 146.275,1067.71L56.322,1057.13L56.322,1031.05L272.511,1031.05L273.267,1033.32C371.912,1322.45 645.171,1516.72 952.824,1516.72C1260.48,1516.72 1533.36,1322.83 1632.38,1033.7L1633.14,1031.43Z" style="fill:rgb(106,115,120);"/>
    </g>
</svg>
