<?xml version="1.0" encoding="UTF-8" standalone="no"?>
<!DOCTYPE svg PUBLIC "-//W3C//DTD SVG 1.1//EN" "http://www.w3.org/Graphics/SVG/1.1/DTD/svg11.dtd">
<svg width="100%" height="100%" viewBox="0 0 200 120" version="1.1" xmlns="http://www.w3.org/2000/svg" xmlns:xlink="http://www.w3.org/1999/xlink" xml:space="preserve" xmlns:serif="http://www.serif.com/" style="fill-rule:evenodd;clip-rule:evenodd;stroke-linejoin:round;stroke-miterlimit:2;">
    <g transform="matrix(0.0410888,0,0,0.0410888,53.3025,8.65452)">
        <path d="M924.822,2.272C924.064,1.01 1011.41,0 1134.61,0C1258.31,0 1345.15,1.01 1344.39,2.272C1341.62,6.564 1350.95,7.573 1408.01,9.088C1439.57,9.846 1483.74,12.118 1505.96,14.137C1528.43,16.157 1555.19,17.671 1565.28,17.671C1575.63,17.671 1598.1,19.439 1615.52,21.458C1632.94,23.478 1653.39,25.245 1660.96,25.245C1668.54,25.245 1690.25,27.012 1708.93,29.032C1727.61,31.051 1754.87,34.081 1769.52,35.595C1784.16,37.362 1805.62,39.382 1817.48,40.392C1829.35,41.402 1849.29,43.674 1861.66,45.188C1874.28,46.955 1898.01,49.985 1914.67,52.004C1931.34,54.024 1953.05,56.801 1962.64,58.316C1972.48,59.83 1988.39,62.102 1997.98,63.112C2007.83,64.122 2024.24,66.394 2034.59,68.161C2129.26,82.803 2147.94,85.833 2164.6,88.862C2172.93,90.377 2186.06,92.396 2193.63,93.406C2201.2,94.416 2214.84,96.435 2223.92,98.203C2233.01,99.97 2244.88,102.242 2250.43,102.999C2260.53,104.766 2260.53,104.766 2262.3,118.651C2263.05,126.224 2263.81,141.371 2264.06,151.974C2264.32,172.422 2266.08,179.996 2269.62,177.724C2270.88,176.967 2271.89,294.355 2271.89,461.729C2271.89,688.933 2271.13,746.996 2268.86,746.491C2265.07,745.986 2262.55,766.434 2262.04,799C2261.54,844.694 2239.32,1024.94 2227.46,1081.74C2225.44,1091.34 2223.92,1102.19 2223.92,1105.22C2223.92,1108.5 2222.41,1118.1 2220.39,1126.68C2218.37,1135.26 2214.84,1151.42 2212.56,1162.53C2203.47,1206.7 2199.69,1222.61 2191.36,1254.67C2189.59,1260.98 2187.32,1270.58 2186.06,1276.13C2184.54,1281.68 2181.26,1294.05 2178.23,1303.9C2175.45,1313.49 2172.17,1325.61 2171.16,1330.4C2169.9,1335.2 2167.88,1342.02 2166.62,1345.55C2165.1,1349.09 2162.07,1358.68 2159.55,1367.01C2157.28,1375.34 2153.74,1386.2 2151.97,1390.99C2144.65,1411.69 2142.64,1418.01 2140.62,1425.07C2139.35,1429.11 2136.07,1438.96 2133.04,1446.53C2130.01,1454.11 2126.73,1463.19 2125.47,1466.73C2124.46,1470.26 2122.44,1475.82 2120.92,1479.35C2119.66,1482.88 2116.38,1490.71 2114.11,1497.02C2111.58,1503.33 2108.05,1512.17 2106.28,1516.46C2104.26,1521 2100.98,1528.83 2098.96,1533.63C2081.54,1575.28 2069.68,1601.03 2048.47,1643.44C2034.59,1670.96 2023.98,1690.9 2011.11,1714.13C2009.34,1717.66 2004.55,1725.99 2000.76,1733.06C1996.97,1739.88 1991.67,1748.97 1988.89,1753.26C1986.37,1757.3 1983.09,1763.1 1981.57,1765.88C1968.7,1790.11 1902.81,1887.31 1879.84,1916.09C1878.07,1918.11 1869.49,1929.47 1860.4,1941.33C1851.56,1953.2 1842.98,1963.8 1841.46,1965.31C1839.95,1966.58 1834.65,1972.89 1830.1,1979.2C1825.31,1985.51 1819.75,1992.33 1817.73,1994.6C1815.46,1996.87 1811.42,2001.41 1808.64,2004.7C1747.55,2076.39 1642.53,2179.39 1572.61,2235.18C1551.4,2252.1 1472.89,2311.42 1460.27,2320C1453.45,2324.55 1435.53,2336.67 1420.88,2346.51C1405.99,2356.61 1392.36,2365.45 1390.59,2366.45C1388.57,2367.21 1383.77,2370.24 1379.48,2373.02C1375.44,2375.8 1370.14,2378.83 1368.12,2379.83C1366.1,2380.84 1360.3,2384.38 1355.5,2387.66C1350.7,2390.94 1344.39,2394.73 1341.62,2395.99C1338.84,2397.25 1333.28,2400.53 1328.99,2403.06C1324.95,2405.84 1316.37,2410.89 1310.06,2414.17C1303.75,2417.7 1291.38,2424.52 1282.29,2429.57C1264.87,2439.16 1193.68,2474.5 1166.16,2487.12C1157.08,2491.16 1147.73,2495.71 1145.46,2496.97C1139.66,2500 1129.56,2500 1123.75,2496.97C1121.48,2495.71 1110.37,2490.41 1099.26,2485.36C1070.99,2472.23 992.478,2432.85 981.875,2426.54C977.079,2423.51 969.758,2419.47 965.466,2417.45C961.427,2415.43 952.339,2410.13 945.27,2406.09C938.454,2401.8 930.376,2397.25 927.599,2395.74C924.822,2394.22 919.268,2390.94 914.976,2388.16C910.937,2385.39 905.131,2382.11 902.354,2380.59C895.538,2377.06 890.236,2373.52 872.06,2361.66C863.729,2356.1 854.893,2350.55 852.621,2349.04C834.193,2338.18 729.426,2262.95 724.377,2256.89C723.62,2256.14 715.289,2249.32 705.444,2241.74C686.51,2226.85 685.5,2226.09 654.954,2199.84C586.288,2140.76 495.659,2048.12 441.382,1981.72C436.333,1975.41 426.488,1963.55 419.672,1955.22C402.505,1934.26 360.851,1878.72 360.851,1876.96C360.851,1875.95 356.055,1868.88 349.996,1861.05C338.888,1846.16 316.42,1812.58 303.798,1791.63C299.759,1784.81 294.457,1776.23 292.185,1772.69C289.661,1768.91 286.631,1763.61 285.117,1760.83C283.602,1758.05 280.32,1752.25 277.796,1748.21C275.019,1743.92 269.97,1735.59 266.688,1729.27C263.154,1722.96 258.105,1713.88 255.328,1709.08C248.764,1697.97 197.012,1594.21 188.429,1575.28C184.894,1567.71 178.078,1551.05 172.777,1538.67C167.728,1526.05 162.426,1513.68 160.912,1511.16C159.397,1508.38 157.378,1503.33 156.368,1499.8C155.105,1496.26 151.824,1486.92 148.794,1479.35C145.765,1471.78 142.483,1462.69 141.221,1459.15C139.959,1455.62 134.91,1441.48 129.861,1427.6C124.812,1413.71 119.763,1398.82 118.753,1394.78C117.491,1390.49 115.471,1384.43 114.209,1380.89C112.694,1377.36 109.665,1367.77 107.14,1359.44C104.616,1351.11 101.334,1339.24 99.314,1332.93C91.993,1308.95 85.43,1283.7 77.099,1250.13C75.079,1242.3 71.797,1228.92 69.778,1220.59C63.971,1197.62 53.369,1146.88 46.805,1112.04C44.785,1100.93 41.756,1085.03 40.241,1076.69C38.727,1068.36 36.455,1054.23 35.192,1045.14C34.183,1036.05 31.91,1020.14 30.143,1009.8C28.629,999.445 25.599,980.006 23.58,966.879C21.56,953.751 20.045,939.362 20.045,935.323C20.045,931.031 18.531,914.117 16.259,897.455C3.636,794.961 1.112,727.557 1.112,477.128C1.112,253.206 3.636,112.087 7.928,106.786C9.19,105.019 15.754,102.999 22.065,102.242C28.629,101.484 43.018,99.212 54.126,97.445C99.062,89.619 153.843,80.531 193.478,74.472C266.688,63.617 263.911,63.87 355.802,52.004C371.707,49.985 400.738,46.451 420.177,44.179C439.615,42.159 469.152,38.625 485.813,36.605C502.475,34.333 520.146,32.818 524.943,32.818C529.739,32.818 549.683,31.051 569.121,29.032C642.836,21.206 794.558,10.855 867.011,8.836C916.743,7.321 927.346,6.059 924.822,2.272ZM1278.5,75.735C1131.58,71.948 974.554,73.967 846.815,81.036C817.783,82.551 775.625,84.823 753.409,85.833C711.503,87.852 662.023,91.639 614.562,96.183C599.415,97.698 574.423,99.97 559.023,100.98C543.877,102.242 519.894,104.261 506.009,106.028C492.125,107.543 465.365,110.573 446.684,112.592C428.003,114.612 403.515,117.389 392.407,118.903C381.3,120.418 363.123,122.69 352.016,123.7C325.256,126.477 293.7,130.768 268.707,135.313C257.6,137.332 245.23,138.847 241.19,138.847C237.151,138.847 223.519,140.614 210.897,142.634C198.274,144.906 177.069,148.44 163.941,150.459C150.814,152.479 133.647,155.256 126.074,156.771C118.5,158.285 104.363,160.305 95.023,161.567C85.43,162.577 76.341,164.849 74.827,166.364C73.06,168.131 70.788,195.9 68.768,241.846C64.729,330.203 65.739,662.173 70.283,730.839C74.322,791.932 79.876,857.821 84.42,896.193C86.692,913.612 88.207,931.031 88.207,935.07C88.207,939.109 89.974,952.237 91.741,964.102C96.537,992.376 100.829,1019.64 103.353,1040.09C105.373,1055.74 107.14,1064.83 114.966,1104.97C127.589,1169.34 136.172,1208.98 145.008,1240.79C146.775,1247.6 150.309,1260.73 152.581,1269.82C154.853,1278.9 158.387,1290.77 160.407,1296.32C162.426,1302.13 163.941,1308.44 163.941,1310.71C163.941,1313.24 165.456,1318.79 167.475,1323.34C169.243,1327.88 172.777,1338.48 175.301,1346.81C177.573,1355.14 181.108,1366 182.875,1370.8C190.196,1391.5 192.215,1397.81 194.235,1404.88C195.497,1408.92 198.779,1418.76 201.808,1426.34C210.392,1448.3 214.683,1459.91 216.703,1466.98C217.965,1470.51 219.985,1475.56 221.499,1478.34C223.014,1480.86 230.083,1497.27 237.151,1514.69C255.833,1559.63 284.864,1620.22 304.05,1654.8C308.847,1663.13 314.401,1673.23 316.42,1677.52C318.44,1681.56 323.741,1690.65 327.78,1697.72C332.072,1704.53 336.616,1712.61 338.131,1715.39C339.646,1718.17 342.927,1723.72 345.704,1728.01C348.481,1732.05 351.763,1737.86 353.278,1740.63C357.064,1747.95 360.851,1753.76 372.211,1770.93C377.765,1779.26 383.319,1788.1 384.834,1790.37C393.417,1804.76 442.14,1872.66 458.801,1893.37C488.59,1930.73 497.678,1941.58 518.884,1966.58C573.918,2030.44 639.302,2095.58 706.958,2153.39C732.708,2175.35 775.877,2210.19 801.122,2229.12C821.318,2244.52 874.332,2281.63 885.44,2288.45C887.712,2289.96 896.547,2295.52 904.878,2301.07C913.209,2306.62 922.045,2312.18 924.317,2313.69C926.589,2314.95 940.726,2323.54 955.873,2332.63C987.177,2351.56 988.186,2352.07 1002.58,2360.14C1008.63,2363.43 1019.74,2369.48 1027.32,2373.78C1040.95,2381.35 1083.86,2402.81 1115.67,2418.21C1124.76,2422.5 1133.6,2426.03 1135.36,2426.03C1136.88,2426.03 1144.96,2422.75 1152.78,2418.71C1236.85,2376.8 1258.81,2365.45 1270.93,2357.62C1275.22,2355.09 1280.27,2352.07 1282.29,2351.05C1284.31,2350.05 1301.22,2340.2 1319.65,2329.09C1338.08,2317.73 1355.25,2307.38 1357.52,2306.12C1359.79,2304.61 1370.14,2297.79 1380.24,2290.97C1390.59,2283.9 1400.69,2277.09 1402.71,2275.83C1406.24,2273.81 1427.19,2259.16 1451.18,2242.25C1460.77,2235.18 1503.18,2203.12 1504.44,2201.35C1505.2,2200.6 1510.76,2196.05 1517.07,2191.26C1537.52,2175.35 1598.86,2122.59 1617.79,2104.41C1669.29,2054.93 1723.57,1998.64 1749.57,1967.84C1754.37,1962.28 1759.42,1956.48 1760.68,1954.96C1778.1,1936.03 1842.73,1852.47 1860.4,1826.47C1897.51,1771.43 1914.42,1745.18 1920.98,1733.06C1922.5,1730.28 1925.78,1724.48 1928.56,1720.44C1931.34,1716.15 1934.36,1711.1 1935.37,1709.08C1936.13,1707.06 1939.41,1701.25 1942.44,1696.46C1952.04,1681.06 1969.2,1648.49 1986.87,1613.15C2012.12,1561.65 2034.59,1513.43 2034.59,1509.9C2034.59,1508.63 2036.1,1504.34 2038.12,1500.3C2041.65,1493.49 2054.53,1461.93 2061.09,1444.01C2062.86,1439.21 2065.89,1430.63 2067.91,1425.07C2077,1400.33 2097.19,1338.23 2106.28,1307.68C2121.93,1253.41 2133.8,1205.95 2144.4,1154.95C2146.67,1143.85 2150.21,1128.19 2152.23,1120.37C2154.25,1112.29 2155.76,1103.2 2155.76,1100.17C2155.76,1096.89 2157.28,1086.29 2159.3,1076.69C2162.83,1060.54 2165.1,1045.89 2173.43,992.124C2175.2,981.773 2177.47,964.607 2178.48,954.256C2179.49,943.906 2181.76,925.73 2183.03,913.864C2188.58,871.201 2193.63,818.944 2193.63,805.312C2193.63,797.738 2195.4,774.26 2197.42,753.56C2205.49,670.504 2204.48,177.976 2196.15,167.878C2194.39,165.859 2189.09,163.587 2183.78,162.829C2178.74,162.072 2165.1,159.8 2153.24,158.033C2103.25,149.45 2011.87,136.07 1948.75,127.739C1932.85,125.467 1910.13,122.438 1898.26,120.923C1886.4,119.156 1867.21,117.136 1855.35,116.126C1843.48,115.117 1824.3,113.097 1812.43,111.582C1691.26,95.678 1461.28,80.279 1278.5,75.735ZM899.829,118.903C946.28,115.622 1361.05,117.389 1419.87,120.923C1542.82,128.244 1594.06,131.778 1629.41,135.06C1650.36,137.08 1672.32,138.847 1678.63,138.847C1684.94,138.847 1705.9,140.614 1725.34,142.634C1744.78,144.906 1775.57,148.187 1793.5,150.207C1851.31,156.518 1896.25,161.82 1924.27,165.606C2038.12,180.753 2086.84,188.074 2133.04,196.405L2157.02,200.949L2159.3,223.417C2162.83,260.78 2162.58,652.075 2158.79,716.954C2151.97,838.887 2137.84,969.151 2122.69,1050.19C2121.18,1057.76 2119.16,1070.89 2117.89,1079.22C2116.89,1087.55 2114.61,1099.41 2113.35,1105.73C2111.84,1112.04 2108.81,1126.17 2106.53,1137.28C2099.97,1168.08 2095.17,1189.03 2091.14,1203.17C2089.12,1210.24 2087.6,1218.07 2087.6,1220.59C2087.6,1222.86 2086.09,1230.18 2084.07,1236.75C2082.05,1243.06 2078.51,1255.17 2076.24,1263.51C2072.2,1278.15 2070.69,1283.7 2061.09,1316.52C2058.57,1324.85 2055.29,1335.71 2053.52,1340.5C2051.75,1345.3 2047.97,1356.66 2044.94,1365.75C2038.88,1384.93 2035.34,1396.04 2030.04,1409.93C2028.02,1415.48 2024.99,1424.06 2023.23,1428.86C2016.66,1446.78 2003.79,1478.34 2000.25,1485.16C1998.23,1489.19 1996.72,1493.49 1996.72,1494.75C1996.72,1496.77 1991.42,1508.63 1973.49,1547.51C1958.85,1578.82 1923.51,1648.24 1915.94,1661.11C1914.67,1663.13 1902.56,1683.58 1888.92,1706.3C1858.38,1757.3 1861.91,1751.49 1843.99,1778.5C1828.34,1801.98 1763.46,1890.08 1758.41,1894.63C1756.89,1895.89 1748.31,1906.24 1739.47,1917.35C1730.39,1928.46 1721.3,1939.31 1719.28,1941.58C1717.01,1943.86 1705.65,1956.23 1694.03,1969.35C1666.52,1999.65 1600.88,2065.54 1570.33,2093.05C1557.21,2104.66 1545.34,2115.27 1543.83,2116.78C1542.31,2118.05 1532.97,2125.87 1523.38,2133.95C1513.53,2142.28 1502.93,2151.12 1499.39,2154.14C1468.85,2180.15 1347.42,2266.99 1330,2275.57C1327.98,2276.33 1323.44,2279.11 1319.65,2281.63C1314.1,2285.17 1284.06,2303.34 1266.89,2313.69C1232.81,2333.89 1140.66,2380.59 1135.11,2380.59C1128.8,2380.59 1061.9,2347.02 1021,2323.54C1012.67,2318.74 1003.59,2313.69 1000.81,2312.43C998.032,2310.92 992.478,2307.63 988.186,2304.86C984.147,2302.08 978.341,2298.8 975.564,2297.28C972.787,2295.77 967.233,2292.49 962.941,2289.71C958.902,2286.93 953.601,2283.9 951.581,2282.89C949.562,2281.88 940.726,2276.33 931.89,2270.27C923.055,2264.21 915.481,2259.42 914.976,2259.42C914.471,2259.42 906.645,2254.37 897.557,2248.06C888.469,2241.74 873.322,2231.39 863.982,2224.83C854.389,2218.52 833.688,2203.12 817.783,2190.75C733.718,2126.38 706.454,2102.39 634.758,2030.95C589.57,1985.51 572.656,1967.84 552.712,1943.86C545.139,1935.02 536.303,1924.67 533.021,1921.13C529.739,1917.6 520.146,1905.74 511.563,1894.63C502.98,1883.52 494.901,1873.17 493.387,1871.65C487.328,1865.6 436.081,1795.42 430.275,1785.32C428.76,1783.05 420.177,1769.67 411.089,1755.78C402,1741.9 391.398,1725.49 387.611,1719.18C383.824,1712.87 379.785,1706.05 378.523,1704.03C374.231,1697.47 354.288,1662.63 352.52,1658.59C351.511,1656.57 346.714,1647.48 341.665,1638.39C317.43,1593.71 290.923,1538.42 271.232,1490.71C266.183,1478.09 260.882,1465.72 259.367,1463.19C257.852,1460.42 255.833,1455.37 254.57,1451.83C252.551,1444.76 248.259,1433.15 239.676,1411.19C236.646,1403.62 233.365,1393.77 232.102,1389.73C230.083,1382.66 228.063,1376.35 220.742,1355.65C218.975,1350.85 215.441,1340 213.169,1331.67C210.644,1323.34 207.11,1311.98 205.595,1306.42C193.73,1268.81 176.311,1201.15 167.728,1160C165.456,1148.89 161.922,1132.49 160.154,1123.4C148.542,1068.11 125.821,923.205 126.074,905.029C126.074,900.737 124.559,883.318 122.287,865.899C117.238,822.478 111.432,738.665 108.402,660.153C105.121,576.088 105.626,373.877 109.412,276.684L112.189,201.202L136.172,196.658C159.397,192.366 185.399,188.074 236.394,180.753C250.026,178.734 269.717,175.704 280.068,174.19C290.418,172.422 304.05,170.655 310.361,170.15C316.673,169.393 333.587,167.374 348.229,165.354C401.748,158.033 418.157,156.266 444.159,153.994C458.801,152.731 476.725,150.459 484.299,148.945C491.62,147.683 504.242,146.42 512.068,146.42C519.894,146.42 537.06,144.653 550.188,142.634C563.315,140.614 581.491,138.847 590.58,138.847C599.668,138.847 620.621,137.08 637.283,135.06C653.692,133.04 676.412,131.273 687.772,131.273C698.88,131.021 716.551,130.011 726.902,128.749C737.252,127.487 773.605,124.962 807.685,123.447C841.766,122.185 883.168,119.913 899.829,118.903ZM982.128,1073.16C980.613,1064.07 976.069,1060.54 973.039,1065.33C970.767,1068.87 973.292,1098.15 978.341,1129.71C980.36,1142.08 981.875,1156.72 981.875,1162.02C981.875,1172.12 972.282,1194.08 959.155,1213.52C954.863,1219.58 951.581,1225.13 951.581,1225.64C951.581,1226.4 946.532,1234.22 940.474,1243.06C934.415,1251.89 929.113,1260.22 928.608,1261.49C926.841,1265.78 897.052,1306.17 845.048,1375.59C783.955,1456.88 761.235,1485.66 723.873,1529.34C708.726,1547.26 703.677,1558.37 699.133,1585.38C696.103,1603.05 694.841,1616.43 690.297,1671.46C687.772,1700.5 691.307,1710.59 718.066,1749.22C727.912,1763.61 777.392,1829.75 784.208,1837.83C786.985,1841.36 800.112,1857.01 812.987,1872.92C835.455,1900.18 867.768,1938.55 870.798,1941.33C871.555,1942.09 875.342,1946.63 879.381,1951.43C894.528,1970.11 928.861,2006.72 959.407,2037.26C984.4,2062 995.507,2071.09 1009.9,2078.91C1069.22,2109.97 1073.77,2111.73 1072.25,2103.66C1071.75,2101.13 1060.13,2091.54 1046.25,2082.2C1032.37,2072.86 1015.96,2059.73 1009.64,2053.17C987.429,2029.44 958.902,1996.87 933.657,1966.32C928.608,1960.27 915.481,1944.36 904.373,1931.23C887.712,1911.04 849.087,1861.81 831.921,1838.08C829.144,1834.55 819.298,1821.16 810.21,1808.54C786.732,1777.24 771.838,1755.28 753.661,1725.49L738.262,1700.24L738.767,1666.16C739.019,1645.97 741.039,1622.74 743.564,1609.36L748.108,1586.64L807.685,1527.32C840.504,1494.75 870.798,1463.44 875.089,1457.89C881.653,1449.06 908.413,1396.8 928.861,1351.86C932.648,1343.53 939.211,1329.39 943.503,1320.31C957.64,1290.01 963.446,1276.38 980.613,1235.74C989.701,1213.52 999.042,1191.56 1001.06,1187.01C1005.35,1177.17 1005.61,1163.28 1002.07,1151.17C1000.56,1146.37 998.284,1137.79 997.275,1132.23C996.012,1126.68 992.478,1113.05 989.449,1101.94C986.167,1090.83 982.885,1077.96 982.128,1073.16ZM1222.71,274.159C1218.42,272.392 1078.56,272.645 1066.44,274.412C1055.09,276.179 1043.72,286.024 1040.44,297.385C1038.68,303.443 1037.41,323.892 1037.41,349.894C1037.67,384.732 1038.42,394.073 1041.96,401.394C1050.54,418.56 1051.55,418.56 1147.23,419.317C1194.69,419.822 1234.58,419.065 1236.34,418.055C1238.62,416.793 1239.37,404.928 1239.37,377.411C1239.37,341.311 1239.12,338.281 1234.32,335.757C1231.3,333.99 1211.86,333.485 1182.07,333.737L1134.61,334.495L1133.85,343.583C1133.34,348.884 1134.35,353.681 1136.63,355.448C1138.65,357.215 1153.79,358.477 1175.25,358.982L1210.34,359.739L1210.34,395.082L1140.66,395.84C1078.06,396.345 1070.49,396.092 1067.45,392.305C1062.91,386.751 1062.41,304.706 1066.7,300.414C1068.72,298.394 1091.94,297.637 1143.69,297.637C1184.59,297.637 1219.93,297.132 1222.46,296.375C1228.27,294.608 1228.52,276.431 1222.71,274.159ZM1248.21,580.632C1193.93,578.108 1130.82,578.108 1071.49,580.885C960.669,585.934 932.395,587.953 923.812,591.74C917.248,594.517 911.189,601.08 901.344,615.975C885.692,639.453 880.391,645.259 849.087,671.514C820.055,696.254 791.781,717.459 764.012,735.636C751.642,743.714 741.039,752.045 740.282,754.064C738.262,759.366 741.544,761.385 746.593,757.851C748.865,756.084 752.652,754.064 754.671,753.055C756.691,752.045 764.012,748.006 771.08,743.966C777.897,739.927 791.024,732.606 800.112,727.557C809.2,722.761 820.055,716.702 824.095,714.178C828.386,711.653 837.474,706.604 844.291,703.07C858.428,695.749 878.876,684.641 904.878,670.251C914.724,664.95 938.706,652.328 958.65,642.23L994.75,623.801L1036.91,619.762C1069.73,616.48 1110.37,615.47 1221.7,615.218L1364.34,614.713L1373.93,620.771C1379.23,624.053 1383.02,627.335 1382.26,627.84C1381.5,628.597 1363.07,630.112 1341.11,631.122C1319.15,632.384 1288.85,634.404 1273.45,636.171C1258.31,637.686 1228.01,640.462 1206.56,642.735C1170.71,646.016 1120.47,652.58 1105.83,655.357C1101.54,656.367 1100.53,657.377 1102.55,659.396C1104.31,661.163 1115.92,661.668 1136.37,660.658C1153.54,660.153 1201.76,657.881 1243.66,656.114C1312.33,653.337 1320.91,653.337 1329.5,656.872C1334.8,659.144 1349.44,665.202 1361.81,670.251C1383.77,679.34 1420.63,696.001 1433.76,703.07C1443.1,707.866 1470.62,711.653 1513.53,714.178C1551.4,716.197 1551.4,716.197 1574.12,727.052C1586.49,733.111 1604.67,742.704 1614.26,748.511C1624.11,754.064 1633.7,759.618 1635.72,760.628C1637.74,761.638 1643.04,764.667 1647.08,767.444C1651.37,770.221 1656.92,773.503 1659.7,774.765C1662.48,776.027 1669.04,780.067 1674.34,783.601C1679.64,787.135 1684.44,790.165 1684.94,790.165C1685.45,790.165 1693.02,794.961 1701.86,800.767C1710.69,806.826 1721.55,813.642 1725.84,815.914C1734.17,820.711 1746.8,821.973 1746.8,818.186C1746.8,815.662 1666.77,735.888 1655.91,727.557C1649.6,722.761 1636.73,714.935 1615.52,703.575C1609.21,700.04 1600.12,694.991 1595.33,692.214C1590.53,689.185 1580.94,683.884 1573.87,680.349C1567.05,676.563 1551.15,668.232 1538.53,661.416C1515.05,648.793 1433.76,607.897 1413.56,598.808C1393.11,589.468 1374.94,586.186 1335.3,584.671C1313.85,583.662 1274.72,581.894 1248.21,580.632ZM720.338,892.659C718.066,890.134 712.007,888.62 705.444,888.62C690.802,888.62 686.51,893.164 686.51,908.816C686.51,915.632 687.52,921.69 688.782,922.448C690.044,923.205 696.608,922.448 703.677,920.933C721.348,916.641 729.931,901.999 720.338,892.659ZM706.958,291.831C703.929,284.51 701.657,284.257 672.625,287.792C664.295,288.801 647.885,289.811 636.02,290.064C624.155,290.316 600.425,292.083 583.006,294.103C565.587,296.122 544.886,297.89 537.06,297.89C529.235,297.89 522.166,298.899 521.409,300.162C519.137,303.696 519.389,444.815 521.661,446.834C522.671,447.844 537.313,447.087 553.975,445.32C580.734,442.29 604.212,440.523 685.248,434.464C705.191,432.95 705.444,432.95 706.958,425.376C707.716,421.085 707.716,416.288 707.211,414.521C705.696,410.229 669.091,410.482 627.185,415.026C584.521,419.822 548.421,420.832 545.139,417.55C543.624,416.036 542.614,407.705 543.119,398.617L543.877,382.46L574.17,379.43C590.832,377.663 622.388,375.139 644.351,374.129C685.753,371.857 688.782,370.847 689.035,360.497C689.035,348.379 688.277,348.127 650.157,349.642C630.719,350.399 599.415,352.923 580.734,354.943C560.033,357.467 546.149,357.972 544.634,356.458C543.372,355.195 542.614,346.865 543.119,338.029L543.877,322.125L586.793,317.581C610.523,315.308 637.283,313.289 646.371,313.036C655.459,313.036 671.868,312.279 682.471,311.269C698.88,310.007 702.667,308.745 705.696,304.201C708.473,299.909 708.726,296.88 706.958,291.831ZM990.206,713.42C990.711,708.371 989.701,708.119 960.417,707.614C938.706,707.361 927.346,708.371 920.025,711.148C895.79,720.236 889.226,722.761 881.653,726.043C877.109,728.062 869.535,731.092 865.244,732.859C852.116,738.16 841.261,743.209 810.21,758.104C779.411,772.998 777.139,775.018 745.836,814.147C720.843,845.451 717.814,848.228 699.133,855.549C690.549,859.083 682.471,863.88 681.209,866.404C678.179,871.958 674.645,871.706 738.262,868.424C786.732,865.647 796.578,863.88 839.242,850.247C851.864,846.461 868.273,841.159 875.847,839.14C883.42,836.868 893.771,833.586 898.567,831.566C903.364,829.799 910.432,827.779 914.219,827.022C923.812,825.003 934.415,815.157 940.978,802.535C944.26,796.476 949.057,787.893 951.581,783.853C954.358,779.562 957.388,774.513 958.397,772.493C959.407,770.474 966.728,757.346 974.807,743.714C982.885,730.082 989.953,716.45 990.206,713.42ZM1429.97,277.946C1359.79,274.159 1302.49,274.159 1302.49,278.199C1301.73,313.289 1302.74,417.298 1303.75,419.065C1306.27,423.104 1319.15,424.114 1403.46,426.386C1495.1,428.91 1494.6,428.91 1490.31,413.511L1487.78,405.18L1461.53,404.675C1396.4,403.161 1331.77,398.869 1329.75,395.587C1326.21,390.033 1327.48,364.284 1331.52,361.002C1334.29,358.73 1347.42,358.477 1392.61,360.749C1424.42,362.264 1454.21,364.284 1459.26,365.041C1470.36,366.556 1474.91,362.264 1473.64,350.399L1472.89,342.068L1451.43,340.048C1439.57,339.039 1407.25,337.272 1379.48,336.262L1328.99,334.495L1328.99,299.152L1359.29,299.657C1375.95,299.909 1411.04,301.424 1437.29,303.191C1482.48,305.968 1485.26,305.715 1488.54,301.424C1493.84,294.355 1492.58,285.52 1486.27,282.995C1482.99,281.733 1457.74,279.461 1429.97,277.946ZM1576.9,778.3C1563.77,771.483 1537.26,771.988 1523.38,779.309C1520.6,780.824 1513.28,784.106 1506.97,786.378C1500.66,788.902 1491.82,792.437 1487.53,794.204C1482.99,796.223 1475.41,799.253 1471.12,801.02C1459.51,805.816 1447.9,810.865 1428.71,819.701C1419.62,823.993 1409.78,828.284 1406.49,829.294C1401.95,830.556 1401.19,831.819 1403.46,834.343C1407.76,839.392 1431.99,841.664 1445.88,838.382C1474.91,831.061 1486.52,828.032 1500.91,824.498C1531.71,816.419 1535.5,817.682 1570.59,843.684C1587.75,856.306 1602.14,867.414 1602.9,868.424C1604.16,869.938 1619.06,882.056 1655.66,911.34C1663.49,917.399 1672.07,924.467 1674.6,926.992C1680.15,932.041 1689.49,936.585 1720.29,949.207C1745.03,959.305 1764.97,968.141 1778.35,974.957C1789.21,980.259 1799.56,991.114 1799.81,996.92C1799.81,998.94 1801.32,1006.26 1803.34,1013.33C1811.93,1043.62 1827.58,1164.04 1827.58,1198.12C1827.58,1205.19 1825.31,1217.56 1822.28,1225.89C1819.5,1233.97 1816.47,1243.06 1815.71,1245.58C1813.19,1253.91 1771.28,1335.45 1759.42,1355.14C1753.11,1366 1743.26,1378.12 1735.94,1384.18C1707.41,1407.91 1708.93,1405.13 1708.93,1437.7C1708.93,1453.6 1709.94,1466.73 1710.95,1466.73C1714.23,1466.73 1763.96,1396.8 1770.27,1383.42C1771.28,1381.4 1774.31,1376.1 1777.09,1372.06C1779.87,1367.77 1783.15,1362.21 1784.66,1359.44C1786.18,1356.66 1790.72,1348.58 1795.01,1341.77C1799.05,1334.7 1804.35,1325.61 1806.37,1321.57C1808.39,1317.28 1814.2,1306.67 1819,1297.59C1848.03,1245.08 1852.07,1234.73 1855.6,1204.18C1862.16,1148.14 1858.38,1029.99 1848.78,983.54C1846.77,973.947 1845.25,963.092 1845.25,959.053C1845.25,945.673 1837.68,932.041 1825.31,923.205C1808.14,910.583 1765.98,882.308 1761.94,880.289C1759.92,879.279 1755.13,876.502 1751.34,873.978C1745.79,870.443 1723.57,856.811 1697.57,841.412C1694.79,839.645 1690.25,837.12 1687.47,835.858C1684.69,834.343 1675.6,829.294 1667.27,824.498C1658.94,819.701 1636.73,808.088 1618.05,799C1599.37,789.66 1580.68,780.319 1576.9,778.3ZM1688.23,294.608C1632.69,289.306 1589.01,287.539 1577.65,290.316C1572.86,291.578 1566.29,295.365 1563.27,299.152C1557.71,305.463 1557.46,307.23 1557.46,359.739L1557.46,413.764L1566.29,422.599C1571.34,427.648 1578.66,431.94 1583.21,432.697C1610.73,437.494 1665.51,441.785 1701.61,442.29C1740.74,443.048 1744.02,442.795 1749.32,437.999C1760.93,427.648 1761.94,421.842 1761.94,374.382C1761.94,332.475 1761.44,328.688 1756.13,319.348C1746.8,302.686 1737.71,299.404 1688.23,294.608ZM1582.7,317.833C1585.23,313.541 1588.26,313.036 1613.75,313.036C1629.41,313.036 1656.17,314.804 1673.59,316.823C1691,318.843 1709.94,320.61 1715.74,320.61C1724.07,320.61 1727.36,321.872 1731.39,327.174C1736.19,333.232 1736.7,337.272 1736.7,370.09C1736.7,407.2 1734.42,418.812 1726.85,419.317C1716.25,420.327 1683.18,418.56 1639.5,414.773C1576.14,409.472 1580.18,412.754 1580.18,361.759C1580.18,339.796 1581.44,320.61 1582.7,317.833ZM752.904,1275.37C756.943,1269.31 759.72,1263.51 759.215,1261.99C758.71,1260.73 750.885,1265.78 741.796,1273.1C725.387,1285.97 692.821,1312.23 682.723,1320.56C651.672,1346.31 643.594,1353.88 644.604,1355.14C646.371,1356.66 663.032,1352.12 675.907,1346.56C680.451,1344.54 685.248,1343.03 686.763,1343.03C688.277,1343.03 694.084,1340.76 700.142,1337.98C708.473,1334.44 715.037,1327.63 728.417,1309.7C738.01,1296.83 749.117,1281.43 752.904,1275.37ZM714.279,807.331C714.279,804.049 705.444,805.059 702.162,808.341C700.395,810.108 693.831,814.4 687.772,817.934C664.295,831.061 619.106,859.588 610.018,866.657C604.717,870.696 595.881,880.036 590.327,887.105C559.781,926.992 554.227,933.051 535.798,946.178C524.943,954.004 499.193,972.937 478.24,988.842C378.27,1064.07 360.851,1083.01 372.716,1103.45C380.795,1116.83 383.572,1116.08 414.623,1092.35C425.478,1084.02 435.071,1075.43 435.828,1073.16C438.605,1065.59 454.51,1047.66 457.287,1049.18C461.831,1052.21 455.267,1077.45 446.431,1089.82C444.412,1092.85 434.566,1104.21 424.973,1114.81C403.01,1139.3 396.194,1148.39 396.194,1153.94C396.194,1159.5 428.507,1201.91 444.664,1217.56C463.598,1235.99 463.345,1236.24 474.453,1180.2C479.25,1155.2 484.046,1150.16 507.271,1146.12C513.583,1145.11 523.681,1143.09 529.992,1141.57C536.303,1140.06 550.693,1137.03 562.305,1134.76C573.666,1132.74 591.842,1129.2 602.697,1127.44C613.3,1125.42 630.466,1122.39 640.564,1120.62C671.616,1115.32 671.868,1116.08 634.506,1077.96C616.582,1059.78 600.173,1043.62 598.153,1042.61C596.133,1041.6 579.724,1039.08 561.8,1037.31C538.575,1034.79 528.982,1033.02 527.972,1030.5C526.458,1026.2 536.051,1018.38 545.139,1016.61C548.673,1015.85 557.761,1012.82 565.335,1009.8C572.908,1007.02 587.298,1001.72 596.891,998.435C606.736,995.153 617.339,991.366 620.873,990.104C624.408,988.842 632.234,985.56 638.545,983.288C644.856,980.763 653.439,977.482 657.478,975.714C661.77,973.947 669.848,970.665 675.907,968.393C681.714,966.121 691.307,962.587 697.365,960.315C703.172,958.043 711.503,954.761 715.542,952.994C719.833,951.227 728.164,947.693 734.475,945.168C746.34,940.624 769.818,920.176 769.818,914.622C769.818,910.078 769.566,910.078 752.652,921.438C743.816,927.497 729.679,933.808 718.824,936.837C708.726,939.614 694.841,943.401 687.772,945.421C665.304,951.479 648.39,952.489 636.273,948.198C624.408,944.158 617.844,944.916 590.832,953.246C578.462,957.033 565.335,957.791 565.335,954.761C565.335,951.984 588.308,935.07 594.366,933.303C597.143,932.546 605.726,929.516 613.3,926.487C620.873,923.458 629.709,920.428 632.991,919.671C643.089,917.399 647.885,908.058 649.4,887.862C651.42,858.831 654.449,854.287 686.258,830.304C701.657,818.691 714.279,808.341 714.279,807.331ZM527.467,1224.88C527.467,1215.54 526.71,1214.28 521.914,1214.28C511.058,1214.53 484.551,1233.21 484.551,1240.79C484.551,1242.3 490.862,1250.88 498.436,1259.72C506.009,1268.81 512.32,1276.89 512.32,1277.9C512.32,1279.16 513.835,1279.91 515.602,1279.91C519.389,1279.91 527.467,1242.05 527.467,1224.88ZM973.797,331.97L973.039,276.431L961.679,275.674C955.368,275.169 949.309,275.674 948.299,276.684C947.29,277.694 946.532,303.948 946.532,334.747C946.532,379.935 945.775,391.548 942.998,394.577C938.454,398.869 918.763,400.889 852.874,402.908C804.404,404.675 803.141,404.675 800.364,399.374C798.597,396.092 797.588,374.886 797.588,339.796C797.588,278.956 797.588,278.703 779.916,282.49L771.08,284.257L770.323,338.281C769.566,403.413 771.838,413.511 788.752,422.094C798.345,427.143 801.879,427.396 863.224,425.881C975.564,423.357 974.807,424.114 973.797,331.97ZM1136.88,1381.9C1132.34,1359.94 1129.31,1354.39 1126.78,1362.47C1122.99,1374.58 1110.62,1406.64 1107.34,1412.45C1106.08,1415.23 1103.81,1420.78 1102.8,1425.07C1101.79,1429.11 1098.51,1438.96 1095.48,1446.53C1092.45,1454.11 1089.17,1463.19 1087.9,1466.73C1086.64,1470.26 1083.36,1479.35 1080.33,1486.92C1077.3,1494.5 1073.77,1504.09 1072.76,1508.38C1071.49,1512.42 1066.44,1527.32 1061.4,1541.2C1056.35,1555.08 1051.3,1569.73 1050.29,1574.02C1049.03,1578.06 1047.01,1584.37 1045.75,1587.9C1044.23,1591.44 1041.2,1601.03 1038.68,1609.36C1036.4,1617.69 1032.87,1628.55 1031.1,1633.34C1029.34,1638.14 1026.05,1649 1023.78,1657.33C1021.26,1665.66 1018.23,1675.76 1016.71,1680.05C1015.45,1684.09 1013.43,1691.66 1012.42,1696.46C1011.41,1701.25 1009.14,1709.33 1007.62,1714.13C993.235,1761.08 992.983,1777.24 1007.37,1810.31C1041.96,1891.09 1091.69,1990.05 1154.55,2104.16C1161.37,2116.53 1167.17,2123.09 1168.94,2121.33C1172.47,2117.79 1164.4,2088.26 1152.03,2058.72C1145.46,2043.32 1138.9,2027.42 1137.13,2023.38C1135.36,2019.09 1132.34,2011.76 1130.32,2006.97C1125.52,1996.37 1111.63,1961.78 1106.33,1947.64C1104.06,1942.09 1101.03,1934.01 1099.26,1929.97C1095.98,1922.4 1090.93,1909.02 1084.37,1891.35C1066.44,1841.36 1064.93,1832.27 1069.22,1796.42C1073.77,1759.32 1079.57,1720.69 1083.36,1700.24C1084.87,1691.91 1086.89,1679.29 1087.9,1672.47C1089.92,1657.33 1094.47,1633.34 1106.84,1571.49C1119.71,1506.87 1127.29,1472.03 1136.12,1437.7C1141.42,1416.24 1141.67,1404.12 1136.88,1381.9ZM716.047,1149.9C700.395,1145.61 684.995,1144.86 682.723,1148.64C681.209,1151.17 682.218,1151.92 692.821,1154.7C699.385,1156.21 737,1169.6 754.671,1176.41C762.245,1179.44 771.333,1182.72 774.867,1183.99C795.316,1190.8 798.85,1193.33 803.394,1206.7L808.19,1219.83L798.85,1237.5C793.801,1247.35 785.218,1261.99 779.664,1270.32C774.362,1278.65 769.818,1285.72 769.818,1286.48C769.818,1289.76 725.387,1346.31 720.086,1349.84C710.998,1355.9 653.692,1375.59 630.719,1380.64C618.854,1383.17 615.32,1381.65 593.861,1363.48C576.19,1348.33 575.685,1348.08 572.656,1353.38C568.617,1360.95 570.889,1397.81 575.938,1407.4C582.249,1419.52 587.298,1433.91 591.842,1452.84C598.405,1481.37 603.202,1499.8 607.999,1515.95C612.038,1530.09 612.795,1531.1 620.621,1531.86C625.165,1532.36 634.253,1531.1 640.564,1528.83C647.128,1526.81 658.993,1523.02 666.819,1520.75C681.714,1516.21 700.9,1501.82 698.123,1497.53C697.113,1495.76 692.316,1496.26 684.491,1498.28C668.586,1502.83 648.895,1507.62 640.564,1508.89C635.011,1509.9 633.243,1508.89 629.962,1502.58C627.69,1498.28 625.922,1491.97 625.922,1488.44C625.922,1484.9 624.155,1474.55 622.136,1465.21C619.864,1456.12 618.349,1442.75 618.854,1435.68C619.611,1423.56 620.116,1422.55 627.185,1420.28C631.476,1419.27 638.797,1416.74 643.594,1414.98C648.39,1413.21 656.469,1410.43 661.265,1408.92C666.062,1407.15 673.635,1404.62 677.674,1403.62C681.966,1402.35 696.608,1397.3 710.493,1392.26C724.377,1387.21 739.524,1381.9 743.816,1380.64C751.642,1378.37 769.818,1362.21 769.818,1357.92C769.818,1356.66 772.848,1351.61 776.382,1346.31C779.916,1341.01 783.955,1334.44 785.218,1331.67C786.48,1328.89 789.004,1324.35 790.519,1321.57C796.073,1313.24 803.899,1299.61 813.997,1281.18C819.298,1271.33 826.367,1258.96 829.396,1253.41C844.291,1226.9 848.582,1216.3 847.068,1207.97C846.058,1203.42 843.786,1198.37 841.766,1196.61C839.746,1194.84 837.979,1192.06 837.979,1190.55C837.979,1186.51 825.862,1177.67 817.783,1175.65C814.249,1174.9 803.646,1172.37 794.053,1170.1C784.46,1167.83 774.615,1165.05 772.09,1163.79C769.566,1162.27 765.022,1161.26 761.992,1161.26C758.963,1161.26 750.38,1159.5 742.806,1157.48C735.485,1155.46 723.368,1151.92 716.047,1149.9ZM1852.82,309.25C1810.66,302.686 1806.12,303.948 1807.89,319.853C1808.64,326.416 1809.65,327.174 1826.32,329.951C1836.16,331.718 1854.34,333.737 1866.71,334.747C1879.33,335.757 1890.94,337.524 1892.71,339.039C1894.98,340.806 1895.74,356.205 1895.74,400.131C1895.74,465.011 1895.99,465.516 1911.39,464.001L1919.72,463.243L1920.48,405.18C1920.73,372.362 1922.25,346.107 1923.51,344.845C1926.79,341.563 1949.76,342.573 1977.53,347.369C1989.9,349.389 2001.52,350.651 2003.28,349.894C2007.83,348.127 2007.83,332.223 2003.79,328.688C2002.02,327.426 1989.65,324.902 1976.52,323.387C1963.4,321.62 1940.68,318.843 1926.03,316.823C1911.39,314.551 1894.48,313.036 1888.17,313.036C1881.86,313.036 1865.95,311.269 1852.82,309.25ZM1496.37,1026.96C1478.19,1008.28 1470.36,1002.22 1465.57,1002.22C1457.99,1002.22 1457.74,1003.23 1462.54,1020.65C1464.31,1027.97 1467.84,1042.87 1470.36,1053.97C1472.64,1065.08 1476.17,1080.99 1477.94,1089.32C1479.96,1097.65 1483.24,1113.55 1485.51,1124.66C1487.78,1135.77 1491.32,1152.18 1493.08,1161.26C1495.1,1170.35 1497.12,1180.7 1497.88,1184.49C1498.89,1188.28 1509.75,1201.91 1523.12,1216.05C1574.37,1270.07 1601.89,1306.42 1611.48,1332.68C1616.03,1345.8 1616.53,1354.64 1617.54,1445.27C1618.55,1544.23 1614.76,1625.01 1607.44,1652.28C1604.67,1663.38 1592.8,1676.01 1564.02,1698.98C1554.43,1706.55 1544.84,1714.63 1542.56,1716.65C1540.29,1718.92 1533.48,1724.73 1527.16,1729.78C1498.64,1753 1387.31,1848.43 1383.27,1852.97C1382.51,1853.73 1370.65,1864.59 1356.76,1876.7C1316.37,1912.55 1279.01,1951.43 1272.7,1964.81C1269.41,1971.37 1265.88,1976.67 1264.62,1976.67C1262.35,1976.67 1257.55,1964.05 1250.48,1938.81C1244.42,1917.35 1244.42,1878.47 1250.48,1854.24C1252.75,1844.39 1256.54,1829.75 1258.56,1821.42C1267.39,1786.58 1281.03,1738.62 1288.85,1715.39C1290.87,1709.58 1292.39,1702.01 1292.39,1698.48C1292.39,1694.69 1293.65,1690.9 1294.91,1690.14C1296.43,1689.39 1297.44,1686.86 1297.44,1684.84C1297.44,1682.32 1295.16,1683.58 1291.12,1688.38C1287.59,1692.67 1284.81,1697.47 1284.81,1699.49C1284.81,1701.51 1283.8,1704.03 1282.54,1705.54C1281.28,1706.81 1269.16,1733.82 1255.78,1765.88C1242.4,1797.69 1229.78,1827.22 1228.01,1831.52C1224.98,1838.58 1221.45,1847.42 1212.36,1871.91C1210.09,1877.46 1207.06,1886.05 1205.29,1890.84C1203.27,1895.64 1200.5,1905.23 1198.73,1912.3C1195.7,1925.17 1196.71,1930.22 1206.05,1953.95C1207.31,1957.49 1210.59,1965.31 1212.87,1971.62C1217.16,1982.73 1220.94,1991.57 1227.76,2007.47C1229.78,2012.02 1233.82,2022.37 1237.1,2030.19C1244.42,2048.62 1249.22,2049.13 1257.8,2032.72C1261.08,2026.15 1266.38,2016.81 1269.16,2012.02C1271.94,2007.22 1276.74,1998.64 1279.77,1993.08C1292.89,1969.1 1304.76,1954.96 1328.49,1934.26C1342.37,1922.14 1356.26,1910.03 1359.54,1907.25C1362.57,1904.22 1370.65,1897.4 1377.21,1892.1C1383.77,1886.55 1393.37,1878.47 1398.16,1874.18C1419.37,1856 1471.37,1813.09 1481.72,1805.26C1488.04,1800.47 1494.35,1795.42 1495.61,1793.9C1497.12,1792.39 1509.49,1782.04 1523.38,1770.93C1537.26,1759.82 1550.14,1749.22 1551.9,1747.7C1553.67,1745.94 1562.26,1739.12 1570.84,1732.56C1579.42,1725.99 1587,1719.93 1587.75,1719.18C1588.51,1718.42 1593.05,1714.88 1597.85,1711.6C1624.36,1693.43 1640.77,1674.49 1640.77,1662.12C1640.77,1659.6 1642.28,1652.03 1644.3,1644.96C1651.37,1619.71 1660.2,1571.75 1667.02,1523.53C1677.37,1448.3 1680.15,1356.66 1674.09,1286.23C1670.05,1240.03 1667.78,1234.98 1628.65,1182.98C1583.46,1122.89 1537.26,1068.11 1496.37,1026.96ZM1274.46,776.532C1254.77,766.434 1254.77,766.434 1233.06,771.483C1224.73,773.251 1208.32,776.532 1196.46,778.804C1176.26,782.591 1165.91,784.611 1118.95,794.204C1081.85,801.525 1072.25,805.564 1064.68,816.672C1052.06,835.353 1053.07,843.179 1068.46,843.179C1072.25,843.179 1082.86,844.946 1091.94,847.218L1108.1,851.51L1127.79,843.179C1138.39,838.635 1151.77,833.333 1157.33,831.314C1162.88,829.294 1170.96,826.012 1175,824.245C1179.29,822.478 1187.12,819.449 1192.67,817.177C1198.22,815.157 1207.82,811.37 1213.88,808.846C1220.44,806.069 1231.3,804.049 1239.62,804.049C1251.49,804.049 1255.28,805.312 1260.58,810.108C1268.91,817.934 1277.24,834.091 1277.24,842.169C1277.24,846.208 1267.9,860.598 1250.73,883.571C1221.7,921.943 1220.19,926.234 1227.76,947.945C1229.78,953.499 1233.31,964.859 1235.59,973.19C1238.11,981.521 1241.39,992.376 1243.16,997.173C1244.93,1001.97 1248.21,1012.82 1250.73,1021.15C1259.06,1050.44 1268.4,1067.86 1275.47,1067.86C1278.25,1067.86 1276.74,1051.45 1272.7,1035.04C1271.18,1028.73 1268.15,1014.59 1265.88,1003.48C1263.61,992.376 1260.07,976.472 1258.05,968.141C1256.03,959.81 1254.27,947.188 1254.02,940.119C1254.02,928.507 1255.28,925.225 1268.66,904.776C1276.99,892.406 1284.06,881.046 1284.81,879.784C1285.57,878.269 1289.36,872.21 1293.65,865.899C1300.21,855.801 1300.97,852.772 1300.46,836.615C1300.21,827.022 1298.45,813.895 1296.17,808.088C1294.15,802.03 1292.39,794.456 1292.39,791.427C1292.39,786.883 1288.85,783.853 1274.46,776.532ZM441.635,314.046C428.255,307.987 422.954,307.987 345.704,316.823C295.972,322.63 271.737,325.659 266.94,327.174C262.649,328.436 262.396,334.242 262.396,400.384C262.396,455.67 263.154,472.584 265.678,473.341C267.193,473.846 272.747,473.594 277.543,472.584L286.379,470.564L287.641,449.359L288.903,427.901L304.05,424.871C312.381,423.104 332.324,420.58 348.229,419.065C364.133,417.803 383.319,415.531 390.893,414.016C398.214,412.754 409.069,411.491 414.875,411.239C430.275,411.239 446.684,402.151 453.5,390.033C458.296,381.703 459.306,376.149 459.306,356.963C459.306,337.272 458.549,332.727 453.5,325.406C450.471,320.61 444.917,315.561 441.635,314.046ZM386.601,335.757C434.314,331.97 434.061,331.718 434.061,359.739C434.061,376.906 433.556,378.673 427.498,383.47C422.954,387.004 417.147,388.771 409.069,388.771C402.758,388.771 384.329,390.538 368.425,392.558C307.837,400.131 292.69,401.646 290.166,400.131C288.651,399.374 287.641,388.519 287.641,374.886C287.641,346.107 286.884,346.612 323.994,343.33C338.383,342.068 353.025,340.301 356.56,339.544C360.094,338.534 373.726,337.019 386.601,335.757Z" style="fill:rgb(106,115,120);"/>
    </g>
</svg>
