<?xml version="1.0" encoding="UTF-8" standalone="no"?>
<!DOCTYPE svg PUBLIC "-//W3C//DTD SVG 1.1//EN" "http://www.w3.org/Graphics/SVG/1.1/DTD/svg11.dtd">
<svg width="100%" height="100%" viewBox="0 0 200 120" version="1.1" xmlns="http://www.w3.org/2000/svg" xmlns:xlink="http://www.w3.org/1999/xlink" xml:space="preserve" xmlns:serif="http://www.serif.com/" style="fill-rule:evenodd;clip-rule:evenodd;stroke-linejoin:round;stroke-miterlimit:2;">
    <g transform="matrix(0.0430553,0,0,0.0430553,46.1809,8.93643)">
        <path d="M266.551,2044.86C331.585,2044.86 377.037,2099.05 377.037,2163.97C377.037,2233.31 331.585,2287.5 266.551,2287.5L106.308,2287.5C101.997,2287.5 97.563,2283.2 97.563,2280.98L97.563,2231.22C97.563,2226.78 101.997,2222.47 106.308,2222.47L257.929,2222.47C286.134,2222.47 307.69,2194.39 307.69,2163.97C307.69,2135.88 286.134,2109.89 257.929,2109.89L82.414,2109.89C78.103,2109.89 73.792,2111.99 73.792,2118.52L73.792,2358.94C73.792,2363.26 71.573,2367.69 65.169,2367.69L10.974,2367.69C4.447,2367.69 0.136,2363.26 0.136,2358.94L0.136,2053.48C0.136,2047.08 4.447,2044.86 8.758,2044.86L266.551,2044.86ZM1460.19,2118.52L1460.19,2358.94C1460.19,2363.26 1455.75,2367.69 1453.66,2367.69L1397.37,2367.69C1392.94,2367.69 1388.62,2363.26 1388.62,2358.94L1388.62,2118.52C1388.62,2111.99 1386.53,2109.89 1382.22,2109.89L1262.99,2109.89C1258.68,2109.89 1254.37,2105.46 1254.37,2099.05L1254.37,2053.49C1254.37,2047.08 1258.68,2044.86 1262.99,2044.86L1587.91,2044.86C1592.23,2044.86 1594.44,2047.08 1594.44,2053.48L1594.44,2101.15C1594.44,2105.46 1592.23,2109.89 1587.91,2109.89L1468.81,2109.89C1464.5,2109.89 1460.19,2111.99 1460.19,2118.52ZM414.601,2202.15C414.601,2119.75 464.485,2048.31 557.603,2044C594.429,2041.78 642.095,2041.78 676.707,2044C772.039,2048.31 817.489,2121.97 817.489,2202.15C817.489,2290.95 769.823,2360.3 676.707,2366.7C644.19,2368.92 592.211,2368.92 557.601,2366.7C464.485,2360.3 414.601,2288.74 414.601,2202.15ZM661.555,2299.58C715.751,2295.26 746.052,2256.22 746.052,2202.15C746.052,2147.95 715.751,2111.13 661.555,2109.03C639.879,2106.82 594.429,2106.82 572.75,2109.03C514.244,2113.34 488.256,2152.26 488.256,2202.15C488.256,2251.91 514.246,2293.05 572.753,2299.58C592.213,2301.79 639.879,2301.79 661.555,2299.58ZM1089.7,2337.26L1089.69,2337.26L946.816,2129.36C944.6,2127.14 942.382,2125.05 940.289,2125.05C935.855,2125.05 931.544,2129.36 931.544,2133.67L931.544,2358.94C931.544,2363.26 929.449,2367.69 922.922,2367.69L868.728,2367.69C862.322,2367.69 860.106,2363.26 860.106,2358.94L860.106,2114.2C860.106,2075.16 894.718,2042.77 933.762,2042.77C959.749,2042.77 981.428,2053.49 996.577,2073.07L1137.36,2285.29C1139.58,2285.29 1141.67,2287.5 1143.89,2287.5C1148.2,2287.5 1152.51,2285.29 1152.51,2280.98L1152.51,2053.48C1152.51,2047.08 1154.73,2044.86 1161.26,2044.86L1215.33,2044.86C1221.86,2044.86 1226.16,2047.08 1226.16,2053.48L1226.16,2296.13C1226.16,2341.58 1198.08,2372 1152.51,2372C1126.52,2372 1102.75,2358.94 1089.7,2337.26ZM1685.47,2367.69L1631.27,2367.69C1626.96,2367.69 1622.65,2363.26 1622.65,2358.94L1622.65,2053.48C1622.65,2047.08 1626.96,2044.86 1631.27,2044.86L1685.47,2044.86C1689.78,2044.86 1694.09,2047.08 1694.09,2053.48L1694.09,2358.94C1694.09,2363.26 1689.78,2367.69 1685.47,2367.69ZM2049.31,2306.96L1867.39,2306.97C1860.86,2306.97 1858.77,2302.66 1860.86,2298.34L1889.06,2248.46C1891.28,2244.15 1897.69,2239.84 1904.21,2239.84L1999.55,2239.84C2003.86,2239.84 2006.08,2235.53 2006.08,2233.31L2006.08,2229L1947.57,2127.14C1945.35,2125.05 1943.26,2122.83 1941.04,2122.83C1938.83,2122.83 1936.73,2125.05 1934.52,2127.14L1800.26,2358.94C1795.95,2363.26 1791.64,2367.69 1787.2,2367.69L1728.82,2367.69C1722.29,2367.69 1722.29,2363.26 1724.39,2356.85L1893.38,2066.54C1902.12,2053.48 1919.37,2042.77 1941.04,2042.77C1962.72,2042.77 1980.09,2053.48 1990.8,2066.54L2155.48,2356.85C2159.79,2363.26 2159.79,2367.69 2151.17,2367.69L2094.88,2367.69C2090.45,2367.69 2086.14,2363.26 2081.82,2358.94L2053.62,2311.28L2049.31,2306.96ZM2493.46,2300.44C2495.55,2300.44 2499.86,2304.75 2499.86,2309.18L2499.86,2358.94C2499.86,2363.26 2495.55,2367.69 2493.46,2367.69L2289.86,2367.69C2190.09,2367.69 2138.24,2289.6 2138.24,2203.01C2138.24,2118.52 2190.09,2044.86 2287.64,2044.86L2493.45,2044.86C2495.55,2044.86 2499.86,2047.08 2499.86,2053.48L2499.86,2099.05C2499.86,2105.46 2495.55,2109.89 2493.45,2109.89L2298.48,2109.89C2237.76,2109.89 2209.68,2153.13 2209.68,2203.01C2209.68,2254.99 2237.76,2300.44 2298.48,2300.44L2493.46,2300.44ZM1239.22,1882.4L1239.22,1882.4C1232.69,1882.4 1226.16,1875.87 1226.16,1869.47L741,21.679C738.784,19.463 738.784,17.368 738.784,17.368C738.784,6.527 747.53,0 756.152,0C758.245,0 760.461,0 762.679,2.216L1239.22,220.965L1720.08,2.216C1720.08,0 1722.29,0 1726.6,0C1733.13,0 1739.54,6.527 1739.54,17.368L1739.54,21.681L1256.59,1869.47C1254.37,1875.88 1247.84,1882.4 1239.22,1882.4ZM1239.22,1745.93L1678.94,71.438L1239.22,270.729L801.6,71.442L1239.22,1745.93ZM1239.22,1609.46L853.577,132.16L1239.22,307.554L1626.96,132.16L1239.22,1609.46ZM1239.22,359.531L1211.02,498.221L998.793,526.426L1211.02,554.509L1239.22,688.887L1269.52,554.509L1481.87,526.426L1269.52,498.221L1239.22,359.531Z" style="fill:rgb(106,115,120);"/>
    </g>
</svg>
