<?xml version="1.0" encoding="UTF-8" standalone="no"?>
<!DOCTYPE svg PUBLIC "-//W3C//DTD SVG 1.1//EN" "http://www.w3.org/Graphics/SVG/1.1/DTD/svg11.dtd">
<svg width="100%" height="100%" viewBox="0 0 200 120" version="1.1" xmlns="http://www.w3.org/2000/svg" xmlns:xlink="http://www.w3.org/1999/xlink" xml:space="preserve" xmlns:serif="http://www.serif.com/" style="fill-rule:evenodd;clip-rule:evenodd;stroke-linejoin:round;stroke-miterlimit:2;">
    <g transform="matrix(0.541766,0,0,0.541766,33.9978,17.4691)">
        <path d="M175.944,7.709C158.405,2.392 140.154,-0.208 121.828,0C103.501,-0.208 85.251,2.392 67.712,7.709C27.654,20.596 0.066,47.352 0.066,78.189C0.066,121.61 54.485,157.02 121.828,157.02C189.02,157.02 243.589,121.761 243.589,78.189C243.589,47.352 216.078,20.596 175.944,7.709ZM121.828,123.197C111.776,123.197 103.575,103.546 103.121,78.642C109.092,79.285 115.366,79.436 121.828,79.436C128.252,79.436 134.563,79.134 140.572,78.68C140.081,103.508 131.88,123.197 121.828,123.197ZM104.369,59.331C107.014,41.834 113.816,29.59 121.828,29.59C129.688,29.59 136.453,41.834 139.287,59.293C127.671,60.332 115.987,60.345 104.369,59.331ZM149.982,57.895C145.9,30.686 134.866,11.035 121.828,11.035C108.79,11.035 97.755,30.535 93.674,57.895C68.959,53.965 51.651,45.311 51.651,35.07C51.651,21.238 83.13,10.052 121.828,10.052C160.525,10.052 192.043,21.238 192.043,35.07C192.043,45.273 174.735,54.116 150.02,57.895L149.982,57.895ZM17.828,75.354C17.828,61.977 23.043,49.543 32,38.698C31.848,39.453 31.848,40.285 31.848,40.889C31.848,57.744 57.017,71.878 92.087,77.244L92.087,81.023C92.087,112.163 100.778,138.616 112.72,147.724C59.549,144.587 17.866,113.41 17.866,75.354L17.828,75.354ZM130.973,147.912C142.915,138.767 151.569,112.314 151.569,81.174L151.569,77.395C186.639,72.218 211.807,57.895 211.807,41.078C211.807,40.285 211.807,39.491 211.656,38.849C220.581,48.995 225.606,61.995 225.828,75.506C225.828,113.41 184.145,144.587 130.973,147.875L130.973,147.912Z" style="fill:rgb(106,115,120);fill-rule:nonzero;"/>
    </g>
</svg>
