<?xml version="1.0" encoding="UTF-8" standalone="no"?>
<!DOCTYPE svg PUBLIC "-//W3C//DTD SVG 1.1//EN" "http://www.w3.org/Graphics/SVG/1.1/DTD/svg11.dtd">
<svg width="100%" height="100%" viewBox="0 0 200 120" version="1.1" xmlns="http://www.w3.org/2000/svg" xmlns:xlink="http://www.w3.org/1999/xlink" xml:space="preserve" xmlns:serif="http://www.serif.com/" style="fill-rule:evenodd;clip-rule:evenodd;stroke-linejoin:round;stroke-miterlimit:2;">
    <g id="Layer" transform="matrix(0.0625806,0,0,0.0625806,51.5,11.5)">
        <path d="M699.4,812.8L731,812.8L731,719.2L699.4,719.2L699.4,698.1L824.6,698.1L824.6,719.2L793.6,719.2L793.6,812.8L822.1,812.8C849.4,812.8 866.8,795.5 866.8,771.3L887.2,771.3L887.2,833.9L699.4,833.9L699.4,812.8ZM914.5,719.2L883.5,719.2L883.5,698.1L1019.9,698.1L1019.9,719.2L987,719.2L1032.3,802.9L1078.2,719.2L1050.9,719.2L1050.9,698.1L1144.5,698.1L1144.5,719.2L1113.5,719.2L1050.9,833.9L977.7,833.9L914.5,719.2ZM324.9,719.2L292.1,719.2L337.9,802.9L383.2,719.2L355.9,719.2L355.9,698.1L449.5,698.1L449.5,719.2L418.5,719.2L356.5,833.9L283.4,833.9L220.1,719.2L189.1,719.2L189.1,698.1L324.9,698.1L324.9,719.2ZM564.2,695.6C627.5,695.6 661,726.6 661,766.3C661,806.6 629.3,838.2 564.9,838.2C500.4,838.2 468.1,806 468.1,766.3C468.1,726.6 501.6,695 564.2,695.6ZM565.5,716.7C543.8,716.1 531.4,739 530.8,765.1C530.8,789.9 540.7,815.3 563.6,815.9C587.2,816.5 597.1,791.1 597.7,766.3C598.3,740.3 587.2,716.7 565.5,716.7ZM1258.6,695.6C1321.9,695.6 1355.4,726.6 1355.4,766.3C1355.4,806.6 1323.7,838.2 1259.3,838.2C1194.8,838.2 1162.5,806 1162.5,766.3C1162.5,726.6 1196,695 1258.6,695.6ZM1225.2,765.1C1225.2,789.9 1235.1,815.3 1258,815.9C1281.6,816.5 1291.5,791.1 1292.1,766.3C1292.7,740.3 1281.6,717.3 1259.9,716.7C1238.2,716.1 1225.8,739 1225.2,765.1ZM1550,775C1550,1202.8 1202.8,1550 775,1550C347.2,1550 -0,1202.8 -0,775C-0,347.2 347.2,0 775,0C938.7,0 1091.2,50.8 1215.9,137.6L1137.1,216.4C1033,148.8 909,109.1 775,109.1C407.4,109.1 109.2,407.3 109.2,775C109.2,1142.7 407.4,1440.9 775,1440.9C1142.7,1440.9 1440.9,1142.7 1440.9,775C1440.9,641.7 1401.9,517.7 1334.3,413.5L1413,334.8C1499.2,459.4 1550,611.3 1550,775ZM1519.7,30.4L1519.7,384.4L1498.6,384.4C1473.2,338.5 1443.4,293.9 1409.3,253L1298.9,363.3C1266.1,321.8 1228.3,284.6 1186.7,251.7L1297.1,141.4C1256.2,107.9 1212.1,77.5 1165,52.1L1165,30.4L1519.7,30.4Z" style="fill:rgb(106,115,120);"/>
    </g>
</svg>
