<?xml version="1.0" encoding="UTF-8" standalone="no"?>
<!DOCTYPE svg PUBLIC "-//W3C//DTD SVG 1.1//EN" "http://www.w3.org/Graphics/SVG/1.1/DTD/svg11.dtd">
<svg width="100%" height="100%" viewBox="0 0 30 30" version="1.1" xmlns="http://www.w3.org/2000/svg" xmlns:xlink="http://www.w3.org/1999/xlink" xml:space="preserve" xmlns:serif="http://www.serif.com/" style="fill-rule:evenodd;clip-rule:evenodd;stroke-linejoin:round;stroke-miterlimit:2;">
    <g transform="matrix(0.473274,-0.473274,0.473274,0.473274,-7.23408,13.3668)">
        <path d="M7.589,14.152C7.589,13.324 7.915,12.537 8.5,11.951C9.086,11.366 9.873,11.04 10.701,11.04L28.194,11.04C29.912,11.04 31.306,12.434 31.306,14.152C31.306,15.87 29.912,17.265 28.194,17.265L18.216,17.265L35.028,34.077C36.243,35.292 36.243,37.264 35.028,38.479C33.813,39.694 31.841,39.694 30.626,38.479L13.814,21.667L13.814,31.644C13.814,33.362 12.419,34.757 10.701,34.757C8.984,34.757 7.589,33.362 7.589,31.644L7.589,14.152Z" style="fill:rgb(225,0,64);"/>
    </g>
</svg>
