<?xml version="1.0" encoding="UTF-8" standalone="no"?>
<!DOCTYPE svg PUBLIC "-//W3C//DTD SVG 1.1//EN" "http://www.w3.org/Graphics/SVG/1.1/DTD/svg11.dtd">
<svg width="100%" height="100%" viewBox="0 0 50 50" version="1.1" xmlns="http://www.w3.org/2000/svg" xmlns:xlink="http://www.w3.org/1999/xlink" xml:space="preserve" xmlns:serif="http://www.serif.com/" style="fill-rule:evenodd;clip-rule:evenodd;stroke-linejoin:round;stroke-miterlimit:2;">
    <g>
        <path d="M25.1,44.7C21.5,44.7 18,43.7 14.9,41.9L14.2,41.5L6.7,43.5L8.7,36.1L8.2,35.3C6.2,32.1 5.1,28.5 5.2,24.7C5.2,13.7 14.1,4.8 25.1,4.8C30.4,4.8 35.4,6.9 39.2,10.6C43,14.3 45,19.5 45,24.8C45,35.8 36.1,44.7 25.1,44.7M42.1,7.8C37.6,3.3 31.5,0.8 25.1,0.8C11.9,0.8 1.1,11.6 1.1,24.8C1.1,29 2.2,33.2 4.3,36.8L0.9,49.2L13.6,45.9C17.1,47.8 21,48.8 25.1,48.8C38.3,48.8 49.1,38 49.1,24.8C49.1,18.4 46.6,12.4 42.1,7.8" style="fill:white;fill-rule:nonzero;"/>
        <path d="M37.2,30.5C37.1,30.3 36.7,30.1 36.1,29.8C35.5,29.5 32.6,28 32,27.8C31.5,27.6 31.1,27.5 30.7,28.1C30.3,28.7 29.2,30.1 28.8,30.4C28.5,30.8 28.1,30.8 27.5,30.5C26.9,30.2 25,29.6 22.7,27.5C20.9,25.9 19.7,23.9 19.4,23.3C19.1,22.7 19.4,22.4 19.7,22.1C20,21.8 20.3,21.4 20.6,21.1C20.9,20.8 21,20.5 21.2,20.1C21.4,19.7 21.3,19.3 21.2,19C21.1,18.7 19.9,15.8 19.4,14.6C18.9,13.4 18.4,13.6 18.1,13.6L17,13.6C16.6,13.6 16,13.7 15.4,14.3C14.9,14.9 13.3,16.4 13.3,19.3C13.3,22.2 15.4,25.1 15.7,25.5C16,25.9 19.9,32 25.9,34.5C27.3,35.1 28.4,35.5 29.3,35.8C30.7,36.3 32,36.2 33.1,36C34.3,35.8 36.6,34.6 37.1,33.2C37.3,32 37.3,30.8 37.2,30.5" style="fill:white;fill-rule:nonzero;"/>
    </g>
</svg>
