<?xml version="1.0" encoding="UTF-8" standalone="no"?>
<!DOCTYPE svg PUBLIC "-//W3C//DTD SVG 1.1//EN" "http://www.w3.org/Graphics/SVG/1.1/DTD/svg11.dtd">
<svg width="100%" height="100%" viewBox="0 0 50 50" version="1.1" xmlns="http://www.w3.org/2000/svg" xmlns:xlink="http://www.w3.org/1999/xlink" xml:space="preserve" xmlns:serif="http://www.serif.com/" style="fill-rule:evenodd;clip-rule:evenodd;stroke-linejoin:round;stroke-miterlimit:2;">
    <g transform="matrix(2.08044,0,0,2.08044,32.0061,24.2359)">
        <path d="M-3.368,-11.166C2.998,-11.166 8.166,-5.999 8.166,0.368C8.166,6.734 2.998,11.901 -3.368,11.901C-9.735,11.901 -14.902,6.734 -14.902,0.368C-14.902,-5.999 -9.735,-11.166 -3.368,-11.166ZM-3.368,10.148C2.029,10.148 6.412,5.765 6.412,0.368C6.412,-5.03 2.029,-9.413 -3.368,-9.413C-8.766,-9.413 -13.149,-5.03 -13.149,0.368C-13.149,5.765 -8.766,10.148 -3.368,10.148ZM0,4.473C0.277,4.612 0.461,4.658 0.554,4.75C0.6,4.889 0.6,5.443 0.369,6.088C0.138,6.734 -0.969,7.333 -1.522,7.426C-2.03,7.518 -2.63,7.565 -3.275,7.333C-3.645,7.196 -4.198,7.011 -4.844,6.734C-7.658,5.535 -9.458,2.72 -9.596,2.536C-9.734,2.351 -10.75,1.06 -10.75,-0.325C-10.75,-1.663 -10.058,-2.354 -9.781,-2.631C-9.55,-2.908 -9.227,-3.001 -9.042,-3.001L-8.489,-3.001C-8.304,-3.001 -8.074,-3.092 -7.843,-2.539C-7.612,-1.985 -7.013,-0.601 -6.966,-0.463C-6.874,-0.325 -6.828,-0.14 -6.92,0.044C-7.013,0.229 -7.059,0.322 -7.197,0.506C-7.335,0.691 -7.474,0.875 -7.612,1.013C-7.75,1.152 -7.935,1.29 -7.75,1.567C-7.612,1.844 -7.059,2.766 -6.228,3.504C-5.167,4.473 -4.291,4.75 -4.014,4.889C-3.737,5.027 -3.599,4.981 -3.414,4.796C-3.275,4.612 -2.722,3.966 -2.538,3.689C-2.353,3.412 -2.122,3.458 -1.892,3.551C-1.661,3.643 -0.277,4.335 0,4.473ZM-3.275,-6.922C0.508,-6.553 3.276,-3.186 2.815,0.643C2.768,1.105 2.584,1.474 2.446,1.89L1.154,1.612C1.292,1.243 1.476,0.921 1.523,0.506C1.846,-2.539 -0.369,-5.262 -3.414,-5.584C-3.644,-5.631 -3.829,-5.631 -4.013,-5.631C-4.567,-5.631 -5.121,-5.492 -5.628,-5.308L-5.674,-6.692C-4.936,-6.922 -4.106,-7.015 -3.275,-6.922ZM-0.6,1.198L-1.846,0.922C-1.753,0.691 -1.661,0.414 -1.615,0.137C-1.569,-0.462 -1.707,-1.063 -2.122,-1.57C-2.492,-2.031 -3.092,-2.354 -3.691,-2.401L-3.922,-2.401C-4.475,-2.401 -4.983,-2.216 -5.398,-1.893L-5.491,-3.323C-4.891,-3.646 -4.245,-3.784 -3.553,-3.739C-2.584,-3.646 -1.707,-3.139 -1.108,-2.401C-0.508,-1.662 -0.231,-0.694 -0.323,0.275C-0.37,0.598 -0.508,0.922 -0.6,1.198Z" style="fill:rgb(0,155,103);"/>
    </g>
</svg>
