<?xml version="1.0" encoding="UTF-8" standalone="no"?>
<!DOCTYPE svg PUBLIC "-//W3C//DTD SVG 1.1//EN" "http://www.w3.org/Graphics/SVG/1.1/DTD/svg11.dtd">
<svg width="100%" height="100%" viewBox="0 0 50 50" version="1.1" xmlns="http://www.w3.org/2000/svg" xmlns:xlink="http://www.w3.org/1999/xlink" xml:space="preserve" xmlns:serif="http://www.serif.com/" style="fill-rule:evenodd;clip-rule:evenodd;stroke-linejoin:round;stroke-miterlimit:2;">
    <g transform="matrix(2.08044,0,0,2.08044,37.5729,19.433)">
        <path d="M-6.043,-8.858C0.323,-8.858 5.491,-3.691 5.491,2.676C5.491,9.042 0.323,14.209 -6.043,14.209C-8.119,14.209 -10.057,13.655 -11.718,12.732L-17.162,14.024L-15.962,8.581C-16.977,6.874 -17.577,4.844 -17.577,2.676C-17.577,-3.691 -12.41,-8.858 -6.043,-8.858ZM-6.043,12.456C-0.646,12.456 3.737,8.073 3.737,2.676C3.737,-2.723 -0.646,-7.106 -6.043,-7.106C-11.441,-7.106 -15.824,-2.723 -15.824,2.676C-15.824,4.705 -15.224,6.551 -14.209,8.119L-15.04,11.81L-11.349,10.888C-9.826,11.856 -7.981,12.456 -6.043,12.456ZM0,5.305C0.323,5.49 0.554,5.536 0.692,5.582C0.738,5.767 0.738,6.412 0.461,7.197C0.185,7.981 -1.153,8.719 -1.799,8.812C-2.399,8.951 -3.091,8.996 -3.875,8.719C-4.291,8.581 -4.937,8.35 -5.721,8.028C-9.088,6.597 -11.211,3.276 -11.396,3.045C-11.58,2.814 -12.779,1.291 -12.779,-0.369C-12.779,-1.984 -11.949,-2.814 -11.626,-3.137C-11.349,-3.507 -10.98,-3.598 -10.75,-3.598L-10.104,-3.598C-9.873,-3.598 -9.596,-3.691 -9.319,-3.045C-9.042,-2.353 -8.304,-0.738 -8.258,-0.553C-8.166,-0.416 -8.12,-0.184 -8.212,0.046C-8.304,0.277 -8.351,0.368 -8.535,0.6C-8.72,0.83 -8.858,1.015 -9.042,1.2C-9.227,1.338 -9.458,1.523 -9.227,1.845C-9.088,2.168 -8.396,3.276 -7.428,4.152C-6.182,5.305 -5.121,5.628 -4.798,5.813C-4.475,5.997 -4.337,5.951 -4.106,5.721C-3.921,5.49 -3.275,4.705 -3.045,4.383C-2.814,4.014 -2.538,4.106 -2.261,4.199C-1.984,4.336 -0.323,5.12 0,5.305Z" style="fill:rgb(0,155,103);"/>
    </g>
</svg>
