<?xml version="1.0" encoding="UTF-8" standalone="no"?>
<!DOCTYPE svg PUBLIC "-//W3C//DTD SVG 1.1//EN" "http://www.w3.org/Graphics/SVG/1.1/DTD/svg11.dtd">
<svg width="100%" height="100%" viewBox="0 0 200 80" version="1.1" xmlns="http://www.w3.org/2000/svg" xmlns:xlink="http://www.w3.org/1999/xlink" xml:space="preserve" xmlns:serif="http://www.serif.com/" style="fill-rule:evenodd;clip-rule:evenodd;stroke-linejoin:round;stroke-miterlimit:2;">
    <g transform="matrix(0.830254,0,0,0.830254,21.0403,-9.81525)">
        <g transform="matrix(1.68934,0,0,1.70515,-189.821,-250.672)">
            <path d="M100.111,186.574L104.279,175.121L111.062,175.121C112.32,175.121 113.247,175.214 113.844,175.402C114.441,175.589 114.85,175.937 115.073,176.445C115.295,176.953 115.274,177.571 115.008,178.3C114.777,178.936 114.422,179.484 113.943,179.945C113.463,180.406 112.899,180.779 112.25,181.066C111.836,181.248 111.305,181.399 110.656,181.519C111.09,181.66 111.392,181.8 111.563,181.941C111.678,182.035 111.823,182.235 111.995,182.542C112.168,182.85 112.272,183.087 112.307,183.253L113.066,186.574L108.466,186.574L107.566,183.074C107.455,182.621 107.317,182.326 107.15,182.191C106.921,182.014 106.621,181.925 106.25,181.925L105.89,181.925L104.199,186.574L100.111,186.574ZM106.678,179.761L108.394,179.761C108.58,179.761 108.958,179.709 109.529,179.605C109.816,179.558 110.079,179.438 110.32,179.246C110.561,179.053 110.727,178.831 110.818,178.581C110.953,178.212 110.921,177.928 110.724,177.73C110.526,177.532 110.056,177.433 109.313,177.433L107.525,177.433L106.678,179.761ZM130.061,184.683L125.425,184.683L124.099,186.574L119.939,186.574L129.058,175.121L133.496,175.121L134.278,186.574L130.02,186.574L130.061,184.683ZM130.109,182.206L130.152,178.089L127.207,182.206L130.109,182.206ZM146.703,175.121L152.75,175.121C153.942,175.121 154.854,175.261 155.485,175.542C156.116,175.824 156.576,176.227 156.863,176.753C157.151,177.279 157.276,177.891 157.237,178.589C157.199,179.287 157.038,180.027 156.753,180.808C156.308,182.032 155.802,182.981 155.236,183.656C154.67,184.33 154.02,184.895 153.285,185.351C152.55,185.807 151.829,186.11 151.121,186.261C150.153,186.47 149.306,186.574 148.581,186.574L142.535,186.574L146.703,175.121ZM149.829,177.714L147.552,183.972L148.549,183.972C149.399,183.972 150.034,183.89 150.453,183.726C150.872,183.562 151.258,183.275 151.611,182.867C151.963,182.458 152.306,181.795 152.64,180.878C153.082,179.665 153.156,178.834 152.864,178.386C152.572,177.938 151.899,177.714 150.845,177.714L149.829,177.714ZM168.023,175.121L172.102,175.121L167.934,186.574L163.855,186.574L168.023,175.121ZM178.423,182.785L182.372,182.574C182.257,183.121 182.276,183.537 182.429,183.824C182.68,184.287 183.194,184.519 183.973,184.519C184.554,184.519 185.045,184.4 185.446,184.164C185.846,183.927 186.103,183.652 186.217,183.339C186.325,183.042 186.272,182.777 186.058,182.542C185.844,182.308 185.23,182.087 184.215,181.878C182.557,181.529 181.453,181.066 180.903,180.488C180.347,179.91 180.232,179.173 180.558,178.277C180.772,177.688 181.171,177.132 181.753,176.609C182.336,176.085 183.076,175.674 183.973,175.374C184.869,175.075 186.003,174.925 187.375,174.925C189.058,174.925 190.242,175.197 190.928,175.742C191.613,176.286 191.823,177.152 191.559,178.339L187.651,178.535C187.737,178.019 187.66,177.644 187.419,177.41C187.177,177.175 186.769,177.058 186.194,177.058C185.721,177.058 185.333,177.145 185.03,177.32C184.727,177.494 184.53,177.706 184.439,177.956C184.373,178.139 184.412,178.303 184.556,178.449C184.693,178.6 185.097,178.74 185.768,178.871C187.426,179.204 188.577,179.541 189.223,179.882C189.868,180.223 190.274,180.647 190.441,181.152C190.607,181.657 190.577,182.222 190.349,182.847C190.082,183.581 189.602,184.259 188.909,184.878C188.217,185.498 187.393,185.968 186.437,186.289C185.482,186.609 184.367,186.769 183.091,186.769C180.851,186.769 179.436,186.394 178.847,185.644C178.257,184.894 178.116,183.941 178.423,182.785ZM210.681,175.121L214.742,175.121L212.257,181.949C212.01,182.626 211.656,183.265 211.195,183.867C210.733,184.468 210.162,184.994 209.48,185.445C208.797,185.895 208.139,186.212 207.503,186.394C206.62,186.649 205.624,186.777 204.516,186.777C203.875,186.777 203.19,186.738 202.461,186.66C201.732,186.581 201.155,186.427 200.73,186.195C200.305,185.963 199.959,185.634 199.692,185.206C199.426,184.779 199.297,184.339 199.306,183.886C199.32,183.157 199.429,182.511 199.634,181.949L202.119,175.121L206.18,175.121L203.635,182.113C203.408,182.738 203.429,183.226 203.699,183.578C203.97,183.929 204.458,184.105 205.165,184.105C205.866,184.105 206.478,183.932 207.003,183.585C207.527,183.239 207.905,182.748 208.136,182.113L210.681,175.121ZM220.223,186.574L224.391,175.121L231.175,175.121C232.432,175.121 233.36,175.214 233.956,175.402C234.553,175.589 234.962,175.937 235.185,176.445C235.407,176.953 235.386,177.571 235.12,178.3C234.889,178.936 234.534,179.484 234.055,179.945C233.575,180.406 233.011,180.779 232.362,181.066C231.948,181.248 231.417,181.399 230.768,181.519C231.202,181.66 231.505,181.8 231.675,181.941C231.791,182.035 231.935,182.235 232.107,182.542C232.28,182.85 232.384,183.087 232.419,183.253L233.178,186.574L228.578,186.574L227.678,183.074C227.567,182.621 227.429,182.326 227.263,182.191C227.033,182.014 226.733,181.925 226.362,181.925L226.003,181.925L224.311,186.574L220.223,186.574ZM226.79,179.761L228.506,179.761C228.692,179.761 229.07,179.709 229.641,179.605C229.928,179.558 230.192,179.438 230.432,179.246C230.673,179.053 230.839,178.831 230.93,178.581C231.065,178.212 231.033,177.928 230.836,177.73C230.638,177.532 230.168,177.433 229.425,177.433L227.638,177.433L226.79,179.761ZM239.121,188.538L239.121,189.678L98.199,189.678L98.199,188.538L239.121,188.538Z"/>
        </g>
        <g transform="matrix(1,0,0,1,-75.9974,-49.197)">
            <path d="M99.684,125.596L119.719,125.596C119.719,125.596 117.821,148.697 144.996,144.6C170.702,140.725 184.5,125.769 184.5,125.769L187.195,125.769C187.195,125.769 160.028,154.696 127.95,156.254C95.657,157.822 99.684,132.441 99.684,125.596Z" style="fill:rgb(252,2,74);"/>
        </g>
        <g transform="matrix(-1,-1.22465e-16,1.22465e-16,-1,262.002,169.197)">
            <path d="M99.684,125.596L119.719,125.596C119.719,125.596 117.821,148.697 144.996,144.6C170.702,140.725 184.5,125.769 184.5,125.769L187.195,125.769C187.195,125.769 160.028,154.696 127.95,156.254C95.657,157.822 99.684,132.441 99.684,125.596Z" style="fill:rgb(4,140,231);"/>
        </g>
    </g>
</svg>
