<?xml version="1.0" encoding="UTF-8" standalone="no"?>
<!DOCTYPE svg PUBLIC "-//W3C//DTD SVG 1.1//EN" "http://www.w3.org/Graphics/SVG/1.1/DTD/svg11.dtd">
<svg width="100%" height="100%" viewBox="0 0 100 100" version="1.1" xmlns="http://www.w3.org/2000/svg" xmlns:xlink="http://www.w3.org/1999/xlink" xml:space="preserve" xmlns:serif="http://www.serif.com/" style="fill-rule:evenodd;clip-rule:evenodd;stroke-linejoin:round;stroke-miterlimit:2;">
    <g transform="matrix(0.823877,0,0,0.823877,5.29333,0.500837)">
        <path d="M60.382,77.227C53.718,81.802 45.652,84.481 36.966,84.481C14.093,84.481 -4.477,65.911 -4.477,43.038C-4.477,20.166 14.093,1.596 36.966,1.596C59.838,1.596 78.408,20.166 78.408,43.038C78.408,51.461 75.89,59.3 71.566,65.843L110.669,104.945C113.783,108.059 113.783,113.116 110.669,116.23C107.555,119.344 102.498,119.344 99.384,116.23L60.382,77.227ZM36.966,17.555C22.901,17.555 11.482,28.974 11.482,43.038C11.482,57.103 22.901,68.522 36.966,68.522C51.03,68.522 62.449,57.103 62.449,43.038C62.449,28.974 51.03,17.555 36.966,17.555Z" style="fill:white;"/>
    </g>
</svg>
