<?xml version="1.0" encoding="UTF-8" standalone="no"?>
<!DOCTYPE svg PUBLIC "-//W3C//DTD SVG 1.1//EN" "http://www.w3.org/Graphics/SVG/1.1/DTD/svg11.dtd">
<svg width="100%" height="100%" viewBox="0 0 200 120" version="1.1" xmlns="http://www.w3.org/2000/svg" xmlns:xlink="http://www.w3.org/1999/xlink" xml:space="preserve" xmlns:serif="http://www.serif.com/" style="fill-rule:evenodd;clip-rule:evenodd;stroke-linejoin:round;stroke-miterlimit:2;">
    <g id="path36902" transform="matrix(0.142168,0,0,0.142168,28.9159,-74.4886)">
        <path d="M821.184,769.444C781.321,769.444 744.305,782.542 714.123,804.752C683.941,782.542 646.925,769.444 607.061,769.444C567.198,769.444 530.182,782.542 500,804.752C469.818,782.542 433.371,769.444 392.939,769.444C353.075,769.444 316.059,782.542 285.877,804.752C256.264,782.542 219.248,769.444 178.815,769.444C80.296,769.444 0,848.602 0,945.982C0,1043.36 80.296,1122.52 178.815,1122.52C218.679,1122.52 255.695,1109.42 285.877,1087.21C316.059,1109.42 353.075,1122.52 392.939,1122.52C432.802,1122.52 469.818,1109.42 500,1087.21C529.613,1109.42 566.629,1122.52 607.061,1122.52C646.925,1122.52 683.941,1109.42 714.123,1087.21C743.736,1109.42 780.752,1122.52 821.184,1122.52C919.704,1122.52 1000,1043.36 1000,945.982C1000,848.602 919.704,769.444 821.184,769.444ZM714.123,1037.1C692.483,1012.61 679.385,980.72 679.385,945.982C679.385,911.244 692.483,879.353 714.123,854.866C735.763,879.353 748.861,911.244 748.861,945.982C748.861,980.72 735.763,1012.61 714.123,1037.1ZM500,1037.1C478.36,1012.61 465.262,980.72 465.262,945.982C465.262,911.244 478.36,879.353 500,854.866C521.64,879.353 534.738,911.244 534.738,945.982C534.738,980.72 521.64,1012.61 500,1037.1ZM285.877,1037.1C264.237,1012.61 251.139,980.72 251.139,945.982C251.139,911.244 264.237,879.353 285.877,854.866C307.517,879.353 320.615,911.244 320.615,945.982C321.185,980.72 307.517,1012.61 285.877,1037.1ZM37.016,945.982C37.016,869.103 100.797,806.46 178.815,806.46C207.859,806.46 235.194,815.003 257.973,830.378C230.638,861.13 214.123,901.563 214.123,945.982C214.123,990.401 230.638,1030.83 257.973,1061.59C235.194,1076.39 208.428,1085.5 178.815,1085.5C100.797,1085.5 37.016,1022.86 37.016,945.982ZM313.781,1061.59C341.116,1030.83 357.631,990.401 357.631,945.982C357.631,901.563 341.116,861.13 313.781,830.378C336.56,815.572 363.326,806.46 392.939,806.46C422.551,806.46 449.317,815.003 472.096,830.378C444.761,861.13 427.676,901.563 427.676,945.982C427.676,990.401 444.191,1030.83 472.096,1061.59C449.317,1076.39 422.551,1085.5 392.939,1085.5C363.895,1085.5 336.56,1076.39 313.781,1061.59ZM527.904,1061.59C555.239,1030.83 572.323,990.401 572.323,945.982C572.323,901.563 555.809,861.13 527.904,830.378C550.683,815.572 577.449,806.46 607.061,806.46C636.674,806.46 663.44,815.003 686.219,830.378C658.884,861.13 641.8,901.563 641.8,945.982C641.8,990.401 658.314,1030.83 686.219,1061.59C663.44,1076.39 636.674,1085.5 607.061,1085.5C577.449,1085.5 550.683,1076.39 527.904,1061.59ZM821.184,1085.5C792.141,1085.5 764.806,1076.96 742.027,1061.59C769.362,1030.83 786.446,990.401 786.446,945.982C786.446,901.563 769.932,861.13 742.027,830.378C764.806,815.572 791.572,806.46 821.184,806.46C899.203,806.46 962.984,869.103 962.984,945.982C962.984,1022.86 899.203,1085.5 821.184,1085.5Z" style="fill:rgb(106,115,120);fill-rule:nonzero;"/>
    </g>
</svg>
