<?xml version="1.0" encoding="UTF-8" standalone="no"?>
<!DOCTYPE svg PUBLIC "-//W3C//DTD SVG 1.1//EN" "http://www.w3.org/Graphics/SVG/1.1/DTD/svg11.dtd">
<svg width="100%" height="100%" viewBox="0 0 200 120" version="1.1" xmlns="http://www.w3.org/2000/svg" xmlns:xlink="http://www.w3.org/1999/xlink" xml:space="preserve" xmlns:serif="http://www.serif.com/" style="fill-rule:evenodd;clip-rule:evenodd;stroke-linejoin:round;stroke-miterlimit:2;">
    <g transform="matrix(0.0261111,0,0,-0.0261111,21.6645,151.218)">
        <path d="M2725,5345C2790,5355 2876,5358 3035,5356C3224,5353 3272,5348 3376,5326C3755,5246 4081,5064 4350,4784C4496,4632 4590,4495 4686,4295C4825,4007 4888,3672 4861,3358C4827,2941 4670,2570 4396,2258C4130,1954 3731,1730 3330,1659C2600,1530 1862,1843 1449,2459C1080,3007 1031,3709 1319,4305C1589,4866 2102,5244 2725,5345ZM3145,5160C2672,5204 2199,5038 1850,4703C1642,4504 1496,4273 1412,4010C1129,3123 1617,2181 2501,1906C2693,1847 2770,1835 2995,1835C3148,1835 3219,1839 3295,1854C3916,1969 4426,2426 4600,3023C4719,3432 4683,3853 4495,4235C4403,4423 4302,4559 4137,4716C3870,4970 3527,5124 3145,5160ZM3310,4350L3310,4610L4171,4610L4167,4058C4164,3538 4162,3500 4143,3415C4086,3175 3974,2923 3811,2673C3775,2616 3743,2570 3740,2570C3737,2570 3695,2633 3647,2710C3566,2840 3460,3040 3431,3120C3416,3160 3422,3172 3375,3015C3314,2810 3181,2547 3039,2347L3012,2310L2940,2420C2869,2530 2750,2752 2714,2842C2703,2869 2692,2890 2689,2890C2686,2890 2677,2864 2670,2833C2647,2729 2600,2608 2520,2445C2448,2298 2317,2082 2292,2066C2272,2054 2134,2278 2036,2481C1958,2641 1910,2779 1878,2926C1856,3032 1855,3048 1855,3565L1855,4095L2218,4098L2580,4100L2580,4350L3310,4350ZM2580,3518L2580,3960L1989,3960L1993,3478C1996,3066 1999,2985 2014,2930C2043,2817 2081,2708 2125,2615C2174,2509 2278,2338 2289,2344C2305,2354 2402,2520 2445,2611C2469,2663 2502,2746 2519,2795C2574,2960 2580,3029 2580,3518ZM2051,3873L2019,3930L2550,3930L2549,3498C2548,3260 2545,3053 2541,3038C2536,3015 2517,3044 2400,3253C2151,3696 2085,3815 2051,3873ZM2022,3270C2020,3421 2020,3543 2023,3540C2026,3537 2103,3402 2195,3240C2287,3078 2386,2903 2416,2852C2446,2801 2470,2754 2470,2747C2470,2729 2378,2542 2329,2460L2287,2388L2263,2427C2167,2583 2096,2742 2053,2900C2029,2989 2027,3013 2022,3270ZM3305,3755L3305,4215L3012,4218L2719,4220L2722,3728C2726,3249 2727,3233 2749,3150C2796,2980 2919,2718 2997,2621L3017,2597L3069,2681C3177,2856 3248,3030 3287,3210C3303,3285 3305,3348 3305,3755ZM2757,4182C2761,4191 3241,4193 3263,4184C3278,4178 3280,4143 3279,3806C3278,3602 3275,3397 3272,3350L3265,3265L3111,3540C3026,3691 2910,3896 2855,3995C2799,4094 2755,4178 2757,4182ZM2753,3515C2749,3756 2751,3792 2763,3775C2770,3764 2808,3699 2847,3630C2886,3561 2981,3394 3059,3258L3199,3010L3166,2932C3135,2861 3058,2715 3025,2667C3014,2651 3010,2654 2981,2699C2938,2765 2858,2929 2826,3014C2762,3184 2758,3213 2753,3515ZM4030,4011L4030,4470L3438,4470L3443,4003C3448,3493 3449,3482 3512,3295C3559,3153 3713,2860 3740,2860C3751,2860 3836,3001 3888,3106C3910,3150 3944,3232 3964,3288C4027,3470 4030,3501 4030,4011ZM3482,4432C3480,4436 3596,4440 3739,4440L4000,4440L4000,3984C4000,3712 3996,3531 3991,3534C3983,3539 3493,4403 3482,4432ZM3473,3795C3469,3977 3471,4052 3478,4045C3497,4027 3920,3278 3920,3263C3920,3231 3756,2910 3739,2910C3732,2910 3631,3088 3597,3161C3559,3243 3514,3378 3495,3462C3483,3515 3477,3607 3473,3795Z" style="fill:rgb(106,115,120);"/>
    </g>
</svg>
