<?xml version="1.0" encoding="UTF-8" standalone="no"?>
<!DOCTYPE svg PUBLIC "-//W3C//DTD SVG 1.1//EN" "http://www.w3.org/Graphics/SVG/1.1/DTD/svg11.dtd">
<svg width="100%" height="100%" viewBox="0 0 200 120" version="1.1" xmlns="http://www.w3.org/2000/svg" xmlns:xlink="http://www.w3.org/1999/xlink" xml:space="preserve" xmlns:serif="http://www.serif.com/" style="fill-rule:evenodd;clip-rule:evenodd;stroke-linejoin:round;stroke-miterlimit:2;">
    <g transform="matrix(0.537521,0,0,0.537521,19.3155,5.09495)">
        <path d="M73.6,97.45L50.26,97.45L48.48,86.83L148.63,86.83L148.63,97.45L145.93,97.45L145.93,89.32L72.75,89.33L73.6,97.45ZM48.07,84.4L148.62,84.4L148.62,76.62L46.75,76.62L48.07,84.4ZM110.95,110.52L148.62,110.52L148.62,104.94L110.95,104.94L110.95,110.52ZM45.77,74.14L69.6,74.14L65.09,66.35L145.93,66.35L145.93,74.11L148.63,74.11L148.63,63.66L38.39,63.66L45.77,74.14ZM189.6,63.66L151.58,63.66L151.58,79.29L189.6,79.29L189.6,63.66ZM55.68,123.99C56.3,124.92 57.44,126 61.25,127.03C63.09,127.46 65.14,127.92 67.97,128.55L108.33,128.55L108.33,123.03L55.16,123.03C55.32,123.4 55.48,123.7 55.68,123.99ZM53.37,115.55L108.32,115.55L108.32,99.95L50.68,99.95L53.37,115.55ZM110.93,137.44C125,140.19 138.75,142.73 148.62,144.27L148.62,118.09L110.93,118.09L110.93,137.44ZM192.2,97.45L249.95,97.45L252.58,81.8L192.2,81.8L192.2,97.45ZM192.2,68.64L192.2,74.2L254.31,74.18L258.21,68.65L192.2,68.65L192.2,68.64ZM286,51.3L267.71,76.96C265.7,87.86 260.46,115.94 259.87,118.66C258.15,126.51 257.32,131.3 241.8,134.96C221.13,139.83 173.86,149.3 150.11,152.99C126.36,149.3 79.1,139.83 58.43,134.96C42.91,131.29 42.08,126.51 40.36,118.66C39.76,115.94 34.52,87.86 32.52,76.96L14.21,51.3L286,51.3ZM271.55,56.13L28.66,56.13L43.07,76.59C46.68,97.88 48.91,111.56 49.83,116.33C51.44,124.63 51.72,128.21 60.35,130.52C77.51,134.56 127.24,144.71 150.1,148.14C172.96,144.72 222.7,134.57 239.86,130.52C248.49,128.21 248.77,124.63 250.38,116.33C251.3,111.56 253.53,97.87 257.14,76.59L271.55,56.13ZM151.58,110.52L154.28,110.52L154.28,102.64L226.16,102.64C226.07,103.4 225.39,108.69 225.05,110.54L247.74,110.54L249.54,99.94L151.58,99.94L151.58,110.52ZM151.58,120.73L245.79,120.73L247.32,112.97L151.58,112.97L151.58,120.73ZM189.6,86.83L151.58,86.83L151.58,92.41L189.6,92.41L189.6,86.83ZM151.58,123.03L245.05,123.05C244.95,123.35 244.7,123.79 244.55,124.01C243.93,124.94 242.8,126.09 238.97,127.03C222.06,131.2 175.55,140.36 151.58,144.27L151.58,123.03ZM154.27,141.12C158.58,140.35 169.11,138.52 172.87,137.81C211.11,130.55 217.67,129.45 220.86,125.72L154.27,125.72L154.27,141.12Z" style="fill:rgb(106,115,120);fill-rule:nonzero;"/>
    </g>
</svg>
