<?xml version="1.0" encoding="UTF-8" standalone="no"?>
<!DOCTYPE svg PUBLIC "-//W3C//DTD SVG 1.1//EN" "http://www.w3.org/Graphics/SVG/1.1/DTD/svg11.dtd">
<svg width="100%" height="100%" viewBox="0 0 200 120" version="1.1" xmlns="http://www.w3.org/2000/svg" xmlns:xlink="http://www.w3.org/1999/xlink" xml:space="preserve" xmlns:serif="http://www.serif.com/" style="fill-rule:evenodd;clip-rule:evenodd;stroke-linejoin:round;stroke-miterlimit:2;">
    <g transform="matrix(0.201095,0,0,0.201095,19.3145,-20.1903)">
        <path d="M401.231,250.462C182.154,250.462 6.154,316.308 6.154,398.769C6.154,480.615 183.385,547.077 401.231,547.077C619.077,547.077 796.308,480.615 796.308,398.769C796.923,317.538 619.077,250.462 401.231,250.462ZM401.231,534.154C192,534.154 22.769,473.846 22.769,398.769C22.769,324.308 192.615,263.385 401.231,263.385C610.462,263.385 779.692,323.692 779.692,398.769C780.308,473.846 610.462,534.154 401.231,534.154ZM556.923,428.923L556.923,430.154C556.923,430.769 558.154,431.385 558.769,432C558.769,432 559.385,432.615 558.769,433.231C556.308,438.769 553.846,441.846 550.769,446.154C547.692,450.462 544.615,453.538 540.923,456.615C535.385,461.538 526.769,466.462 520,463.385C516.923,461.538 515.692,457.846 515.692,454.154C515.692,444.923 520,435.077 528,425.231C537.231,413.538 548.308,407.385 555.077,411.077C562.462,414.154 560.615,422.769 556.923,428.923ZM361.231,367.385C360.615,363.692 361.846,359.385 365.538,356.308C367.385,354.462 369.846,354.462 371.692,355.692C373.538,356.923 372.308,360.615 371.077,363.692C369.231,366.769 366.154,369.231 363.077,369.231C361.846,368.615 361.231,368.615 361.231,367.385ZM401.231,275.077C199.385,275.077 35.692,331.077 35.692,399.385C35.692,467.077 199.385,523.077 401.231,523.077C603.077,523.077 766.769,467.077 766.769,398.769C766.769,330.462 603.077,275.077 401.231,275.077ZM213.538,480.615C192,480.615 172.923,467.692 170.462,444.308C169.231,431.385 172.923,420.308 180.308,410.462C186.462,401.846 197.538,395.077 206.769,393.231C209.846,392.615 213.538,393.231 215.385,395.077C217.846,398.154 217.231,401.231 214.769,403.077C208,406.769 199.385,412.923 195.077,420.923C191.385,427.692 190.769,436.308 196.308,443.692C204.923,456.615 228.923,457.231 251.692,436.308C257.231,431.385 262.154,426.462 267.077,420.308C276.923,409.231 280,404.923 293.538,386.462L293.538,385.846L292.923,385.231C284.308,385.231 276.308,388.308 268.923,393.846C267.077,395.692 264,395.077 262.154,393.231C260.923,390.769 261.538,387.692 264,386.462C275.692,377.846 289.231,376.615 302.154,374.154C302.154,374.154 303.385,374.154 304,372.923C309.538,366.154 313.846,359.385 319.385,352.615C325.538,345.231 332.923,339.077 338.462,333.538C346.462,326.769 352,324.308 356.923,321.231C358.154,320.615 356.923,319.385 356.308,319.385C326.769,313.846 296,306.462 267.077,317.538C246.769,324.923 238.154,340.923 242.462,352C245.538,359.385 255.385,360.615 265.231,356.308C273.231,352.615 280,346.462 285.538,338.462C288.615,334.154 294.154,337.231 291.077,344.615C282.462,364.923 265.846,380.923 246.154,381.538C228.923,382.154 218.462,369.846 218.462,354.462C218.462,324.308 252.308,304 288,300.923C331.077,297.231 371.692,308.923 414.154,313.846C446.769,317.538 478.154,318.154 510.769,310.154C514.462,309.538 517.538,312 516.923,315.692C516.308,321.231 512,326.769 501.538,332.923C489.231,339.692 476.308,341.538 462.769,341.538C430.154,341.538 400,329.231 368.615,322.462C368.615,323.692 369.231,325.538 368,326.154C350.769,339.077 334.769,352 324.308,369.846C323.692,370.462 324.308,370.462 324.923,370.462C334.154,369.846 342.154,369.846 350.769,369.231C352,369.231 352,368.615 352,367.385C351.385,361.231 353.231,353.846 358.769,348.923C364.308,344 371.692,343.385 376,347.077C381.538,351.385 380.923,358.769 377.846,364.308C374.769,369.846 369.846,372.923 365.538,374.769C365.538,374.769 364.308,374.769 364.923,376C364.923,377.231 371.692,380.923 372.308,382.154C372.923,382.769 372.308,384.615 371.692,385.231C371.077,385.846 369.846,386.462 368.615,386.462C367.385,386.462 366.769,385.846 365.538,385.231C362.462,383.385 358.769,380.923 356.923,377.846C356.308,376.615 355.692,376.615 353.846,376.615C344.615,377.231 330.462,378.462 320.615,379.692C318.154,379.692 318.154,380.308 317.538,381.538C302.154,406.769 285.538,434.462 267.077,452.923C247.385,475.077 230.769,480.615 213.538,480.615ZM633.846,356.308C630.769,361.231 572.923,449.846 569.231,458.462C568,461.538 568,463.385 569.231,465.231C572.308,469.538 579.077,467.077 583.385,464C595.692,455.385 604.308,444.923 614.154,435.692C614.769,435.077 615.385,435.077 616,435.692C617.231,436.923 619.692,438.769 620.923,440C621.538,440.615 621.538,441.231 620.923,441.846C611.692,453.538 601.231,464 591.385,472C576,483.692 560.615,486.769 552.615,479.385C549.538,476.308 548.308,472.615 548.308,468.923C548.308,467.077 547.077,467.077 546.462,467.692C537.231,476.923 521.231,486.769 507.077,479.385C494.769,473.231 492.308,459.077 494.769,446.769C494.769,446.769 494.769,444.923 492.923,445.538C490.462,447.385 487.385,449.231 483.077,451.077C478.154,452.923 475.692,453.538 470.769,453.538C464.615,453.538 459.692,451.077 456,444.923C454.154,441.846 452.923,436.923 452.923,433.231C452.923,432.615 452.308,432 451.692,433.231C441.846,448 432.615,462.769 422.769,478.154C422.154,478.769 421.538,479.385 420.923,479.385L401.846,479.385C400.615,479.385 400,478.769 400.615,477.538C404.308,470.769 422.769,443.692 435.692,420.308C439.385,414.154 438.769,410.462 436.308,409.231C433.846,407.385 428.308,409.846 423.385,413.538C411.077,422.769 400.615,437.538 395.077,444.308C392,448 388.923,454.154 380.923,462.769C368,476.923 350.769,484.923 334.769,479.385C325.538,476.308 319.385,468.923 316.923,460.308C316.308,458.462 315.692,457.846 314.462,459.077C312,462.154 306.462,467.077 301.538,470.154C300.923,470.769 299.692,471.385 298.462,470.769C297.231,470.154 294.154,465.846 293.538,464C292.923,462.769 293.538,462.154 294.154,461.538C300.923,456 304,452.308 307.077,449.231C308.923,446.769 310.769,443.692 312.615,438.769C316.308,428.923 325.538,410.462 343.385,400.615C350.154,396.923 356.923,394.462 364.923,393.231C368,392.615 371.077,393.231 371.692,395.692C372.308,396.923 372.923,399.385 373.538,400.615C374.154,401.846 373.538,402.462 372.308,403.077C361.846,407.385 351.385,413.538 344,423.385C335.385,434.462 333.538,448 339.077,455.385C343.385,460.923 349.538,462.154 356.308,459.692C366.154,456.615 374.154,448 378.462,437.538C382.769,426.462 384,414.154 380.308,402.462C379.692,400.615 380.308,398.769 381.538,398.154C384,396.308 387.692,394.462 388.308,393.846C390.769,392.615 393.231,393.231 394.462,395.077C398.154,400 400,407.385 400,415.385C400,417.231 400.615,417.231 401.846,416C408,409.231 414.154,402.462 420.308,396.923C426.462,392 434.462,388.308 441.231,388.308C450.462,388.308 455.385,395.077 454.769,406.154C454.769,407.385 456,407.385 456.615,406.769C459.692,402.462 461.538,400.615 464.615,398.154C471.385,392.615 477.538,390.154 484.923,390.769C493.538,391.385 500.308,399.385 499.077,408C498.462,413.538 494.769,419.077 489.846,421.538C485.538,424 480,423.385 476.308,420.308C473.231,417.846 472.615,413.538 473.231,409.846C473.231,409.231 472.615,408 471.385,409.231C462.769,417.846 462.154,428.923 467.692,434.462C473.846,440 482.462,436.308 489.231,432C501.538,424 510.769,413.538 521.231,404.923C528.615,399.385 536.615,394.462 545.846,393.231C550.769,392.615 555.692,392.615 560.615,395.077C567.385,397.538 571.077,403.077 571.692,408C571.692,409.231 572.923,409.846 573.538,408.615C578.462,400.615 606.769,358.769 609.231,354.462C609.846,353.231 610.462,352.615 612.308,352.615L632,352.615C633.846,355.077 633.846,355.692 633.846,356.308Z" style="fill:rgb(106,115,120);fill-rule:nonzero;"/>
    </g>
</svg>
