<?xml version="1.0" encoding="UTF-8" standalone="no"?>
<!DOCTYPE svg PUBLIC "-//W3C//DTD SVG 1.1//EN" "http://www.w3.org/Graphics/SVG/1.1/DTD/svg11.dtd">
<svg width="100%" height="100%" viewBox="0 0 200 120" version="1.1" xmlns="http://www.w3.org/2000/svg" xmlns:xlink="http://www.w3.org/1999/xlink" xml:space="preserve" xmlns:serif="http://www.serif.com/" style="fill-rule:evenodd;clip-rule:evenodd;stroke-linejoin:round;stroke-miterlimit:2;">
    <g transform="matrix(0.233802,0,0,0.233802,6.47921,-33.6756)">
        <path d="M72.386,390.621L72.386,357.959L121.159,357.959L121.159,443.366L72.386,443.366L72.386,410.262L48.772,410.262L48.772,443.366L0,443.366L0,357.959L48.772,357.959L48.772,390.621L72.386,390.621ZM201.379,415.007L201.379,357.959L250.152,357.959L250.152,415.779C250.152,424.497 242.648,443.366 214.731,443.366L163.641,443.366C135.724,443.366 128.221,424.386 128.221,415.779L128.221,357.959L176.993,357.959L176.993,415.007C176.993,420.855 180.524,427.586 189.131,427.586C197.848,427.586 201.379,420.855 201.379,415.007ZM331.586,392.607L350.786,357.959L406.621,357.959L406.621,443.366L361.821,443.366L361.821,406.731L341.738,443.366L321.324,443.366L301.241,406.731L301.241,443.366L256.441,443.366L256.441,357.959L312.276,357.959L331.586,392.607ZM488.055,392.607L507.366,357.959L563.2,357.959L563.2,443.366L518.4,443.366L518.4,406.731L498.317,443.366L477.903,443.366L457.821,406.731L457.821,443.366L412.91,443.366L412.91,357.959L468.855,357.959L488.055,392.607ZM568.717,443.366L568.717,357.959L663.945,357.959L663.945,381.572L619.034,381.572L619.034,390.621L663.945,390.621L663.945,410.262L619.034,410.262L619.034,419.752L663.945,419.752L663.945,443.366L568.717,443.366ZM792.938,386.317C792.938,396.91 784.662,413.462 774.4,413.021L800,443.255L739.862,443.255L719.007,418.428L719.007,443.255L670.234,443.255L670.234,357.959L767.338,357.959C786.207,357.959 792.938,375.724 792.938,386.317ZM732.359,397.352C744.938,397.352 746.041,378.041 733.903,378.041L719.007,378.041L719.007,397.352L732.359,397.352Z" style="fill:rgb(106,115,120);"/>
    </g>
</svg>
