<?xml version="1.0" encoding="UTF-8" standalone="no"?>
<!DOCTYPE svg PUBLIC "-//W3C//DTD SVG 1.1//EN" "http://www.w3.org/Graphics/SVG/1.1/DTD/svg11.dtd">
<svg width="100%" height="100%" viewBox="0 0 200 120" version="1.1" xmlns="http://www.w3.org/2000/svg" xmlns:xlink="http://www.w3.org/1999/xlink" xml:space="preserve" xmlns:serif="http://www.serif.com/" style="fill-rule:evenodd;clip-rule:evenodd;stroke-linejoin:round;stroke-miterlimit:2;">
    <g id="path830" transform="matrix(1.41186,0,0,1.41186,33.7981,26.2656)">
        <path d="M56.707,29.416C57.421,33.106 55.487,36.171 53.88,39.146C52.095,41.914 49.149,44.293 45.608,43.937C37.662,43.818 29.896,42.598 22.694,40.425C22.367,40.336 22.04,40.127 21.861,39.83C21.712,39.413 21.921,39.026 22.218,38.759C28.795,33.432 36.621,30.963 44.358,28.373C47.244,27.54 50.31,26.647 53.553,27.064C54.891,27.243 56.23,28.166 56.707,29.416ZM83.816,13.645C87.506,16.68 90.839,20.817 89.708,25.816C87.863,33.196 79.829,37.124 73.431,39.623C69.949,40.784 66.438,41.975 62.629,42.332C62.391,42.302 62.004,42.361 61.944,42.004L62.033,41.588C67.449,35.487 71.555,28.644 75.157,21.71C76.823,18.585 78.371,15.372 79.799,12.217C80.007,11.979 80.216,11.86 80.454,11.771C81.792,11.889 82.745,12.931 83.816,13.645ZM31.888,5.789L31.769,6.235C23.943,15.132 18.795,25.458 13.915,35.724C12.963,36.617 12.04,35.426 11.177,35.039C6.832,32.183 2.904,27.57 4.035,22.095C5.85,14.954 13.2,11.145 19.331,8.557C22.961,7.188 26.741,6.087 30.728,5.462C31.145,5.461 31.68,5.402 31.888,5.789ZM70.723,7.217C71.169,7.455 71.705,7.544 71.973,7.99C72.211,8.496 71.735,8.823 71.467,9.151C65.307,13.971 58.255,16.65 51.053,19.001C47.392,19.894 43.702,21.501 39.626,20.608C38.673,20.37 37.811,19.745 37.275,18.822C36.263,16.025 37.632,13.109 38.822,10.669C40.399,7.604 43.197,4.003 47.065,3.944C55.397,3.884 63.253,5.134 70.723,7.217ZM81.019,7.455C87.328,10.907 94.47,16.977 93.726,25.071C92.863,32.57 85.87,37.807 79.621,40.962C61.379,49.681 35.758,49.948 16.921,42.331C10.552,39.683 3.41,35.13 0.731,28.285C-1.322,22.661 1.177,16.799 5.374,12.901C14.152,4.926 25.341,2.189 36.858,0.611C49.357,-0.907 62.509,0.432 73.698,4.271C76.198,5.194 78.668,6.206 81.019,7.455Z" style="fill:rgb(106,115,120);"/>
    </g>
</svg>
