<?xml version="1.0" encoding="UTF-8" standalone="no"?>
<!DOCTYPE svg PUBLIC "-//W3C//DTD SVG 1.1//EN" "http://www.w3.org/Graphics/SVG/1.1/DTD/svg11.dtd">
<svg width="100%" height="100%" viewBox="0 0 200 120" version="1.1" xmlns="http://www.w3.org/2000/svg" xmlns:xlink="http://www.w3.org/1999/xlink" xml:space="preserve" xmlns:serif="http://www.serif.com/" style="fill-rule:evenodd;clip-rule:evenodd;stroke-linejoin:round;stroke-miterlimit:2;">
    <g transform="matrix(1.52332,0,0,1.52332,23.8265,40.5548)">
        <path d="M58.02,21.83C58.02,22.02 58.08,22.13 58.19,22.13C58.28,22.12 58.36,22.08 58.43,22.03L89.6,1.8C90.127,1.432 90.758,1.243 91.4,1.26L98.25,1.26C99.3,1.26 100.01,1.96 100.01,3.01L100.01,16.09C100.01,17.67 99.66,18.59 98.26,19.43L89.95,24.43C89.867,24.488 89.771,24.522 89.67,24.53C89.57,24.53 89.47,24.45 89.47,24.16L89.47,8.9C89.47,8.72 89.42,8.6 89.3,8.6C89.212,8.61 89.129,8.645 89.06,8.7L66.28,23.5C65.76,23.85 65.15,24.04 64.53,24.03L49.43,24.03C48.37,24.03 47.67,23.33 47.67,22.27L47.67,3.42C47.67,3.28 47.61,3.15 47.49,3.15C47.402,3.161 47.32,3.196 47.25,3.25L32.22,12.27C32.07,12.37 32.03,12.44 32.03,12.51C32.03,12.57 32.06,12.63 32.16,12.74L42.9,23.47C43.04,23.61 43.14,23.72 43.14,23.84C43.14,23.94 42.98,24.02 42.79,24.02L33.09,24.02C32.33,24.02 31.74,23.91 31.33,23.5L24.82,17C24.77,16.94 24.698,16.904 24.62,16.9C24.549,16.903 24.481,16.924 24.42,16.96L13.54,23.5C12.88,23.9 12.43,24.01 11.78,24.01L1.77,24.01C0.7,24.02 0,23.31 0,22.26L0,9.43C0,7.84 0.35,6.93 1.76,6.09L10.12,1.07C10.186,1.027 10.262,1.003 10.34,1C10.47,1 10.54,1.13 10.54,1.42L10.54,18.6C10.54,18.78 10.58,18.86 10.71,18.86C10.8,18.85 10.88,18.81 10.96,18.76L39.2,1.77C39.74,1.4 40.4,1.22 41.06,1.25L56.26,1.25C57.31,1.25 58.02,1.95 58.02,3L58.01,21.83L58.02,21.83Z" style="fill:rgb(106,115,120);fill-rule:nonzero;"/>
    </g>
</svg>
