<?xml version="1.0" encoding="UTF-8" standalone="no"?>
<!DOCTYPE svg PUBLIC "-//W3C//DTD SVG 1.1//EN" "http://www.w3.org/Graphics/SVG/1.1/DTD/svg11.dtd">
<svg width="100%" height="100%" viewBox="0 0 200 120" version="1.1" xmlns="http://www.w3.org/2000/svg" xmlns:xlink="http://www.w3.org/1999/xlink" xml:space="preserve" xmlns:serif="http://www.serif.com/" style="fill-rule:evenodd;clip-rule:evenodd;stroke-linejoin:round;stroke-miterlimit:2;">
    <g id="path26" transform="matrix(1.00035,0,0,1.00035,-98.949,1.72128)">
        <path d="M214.077,56.426C214.014,42.532 213.22,26.849 210.999,12.415C210.999,12.415 206.383,11.873 200.371,11.787C199.958,6.135 199.625,3.043 199.625,3.043L198.134,3.043C198.134,3.043 197.801,6.135 197.389,11.787C191.376,11.873 186.76,12.415 186.76,12.415C184.523,26.849 183.73,42.532 183.675,56.426C178.733,56.991 174.799,57.548 174.799,57.548L174.799,58.977C174.799,58.977 178.733,59.526 183.675,60.099C183.73,73.992 184.523,89.667 186.76,104.102C186.76,104.102 191.376,104.652 197.389,104.738C197.801,110.389 198.134,113.474 198.134,113.474L199.625,113.474C199.625,113.474 199.958,110.389 200.371,104.738C206.383,104.652 210.999,104.102 210.999,104.102C213.22,89.667 214.013,73.992 214.077,60.099C219.018,59.526 222.96,58.977 222.96,58.977L222.96,57.548C222.96,57.548 219.018,56.991 214.077,56.426ZM207.676,16.677C209.619,30.201 210.119,47.179 210.174,56.002C207.351,55.711 204.456,55.468 201.949,55.35C201.886,39.016 201.283,25.758 200.704,16.677L207.676,16.677ZM190.075,16.677L197.047,16.677C196.484,25.758 195.866,39.016 195.81,55.35C193.304,55.468 190.393,55.711 187.585,56.002C187.64,47.179 188.124,30.201 190.075,16.677ZM190.075,99.848C188.124,86.316 187.64,69.346 187.585,60.523C190.393,60.805 193.304,61.049 195.81,61.174C195.866,77.509 196.484,90.758 197.047,99.848L190.075,99.848L207.676,99.848L200.704,99.848C201.283,90.758 201.886,77.509 201.949,61.174C204.456,61.049 207.351,60.805 210.174,60.523C210.119,69.346 209.619,86.316 207.676,99.848L190.075,99.848" style="fill:rgb(106,115,120);"/>
    </g>
</svg>
