<?xml version="1.0" encoding="UTF-8" standalone="no"?>
<!DOCTYPE svg PUBLIC "-//W3C//DTD SVG 1.1//EN" "http://www.w3.org/Graphics/SVG/1.1/DTD/svg11.dtd">
<svg width="100%" height="100%" viewBox="0 0 200 120" version="1.1" xmlns="http://www.w3.org/2000/svg" xmlns:xlink="http://www.w3.org/1999/xlink" xml:space="preserve" xmlns:serif="http://www.serif.com/" style="fill-rule:evenodd;clip-rule:evenodd;stroke-linejoin:round;stroke-miterlimit:2;">
    <g transform="matrix(0.0518998,0,0,0.0518998,35.1252,-4.8748)">
        <path d="M2213.39,1249.17C2213.39,1780.81 1782.46,2213.39 1250.83,2213.39C717.552,2213.39 286.606,1780.8 286.606,1249.17C286.606,717.539 717.552,286.606 1250.83,286.606C1782.45,286.606 2213.39,717.526 2213.39,1249.17ZM1250.83,339.445C748.913,339.445 339.445,747.253 339.445,1249.18C339.445,1751.11 748.913,2160.57 1250.83,2160.57C1751.1,2160.57 2160.55,1751.1 2160.55,1249.18C2160.55,747.253 1751.1,339.445 1250.83,339.445ZM1250.83,412.088C1711.48,412.088 2087.9,788.523 2087.91,1249.18C2087.91,1711.49 1711.48,2086.26 1250.83,2086.26C788.523,2086.26 413.748,1711.49 413.748,1249.18C413.748,788.523 788.523,412.088 1250.83,412.088ZM1250.83,2063.15C1698.25,2063.15 2063.15,1698.25 2063.15,1249.17C2063.15,801.739 1698.26,436.861 1250.83,436.861C801.739,436.861 436.861,801.726 436.861,1249.17C436.861,1698.25 801.739,2063.15 1250.83,2063.15ZM1397.73,677.883C1396.08,679.525 1392.78,679.525 1391.14,679.525C1369.67,679.525 1353.16,663.001 1353.16,641.536C1353.16,621.732 1369.68,603.561 1391.14,603.561C1401.05,603.561 1410.94,608.528 1417.56,616.777L1419.2,616.777C1420.88,616.777 1422.52,616.777 1422.52,615.13C1412.62,603.574 1409.3,592.018 1409.3,582.109C1409.3,549.088 1448.9,532.577 1488.55,532.577L1396.09,753.829C1401.02,760.43 1407.63,767.032 1412.6,775.294C1432.41,767.032 1452.21,765.385 1465.41,765.385C1480.28,765.385 1488.54,767.045 1491.83,768.692C1491.83,768.692 1501.74,770.352 1505.04,773.646C1491.83,805.02 1481.94,821.531 1472.03,839.689C1519.9,887.573 1538.07,950.321 1528.16,1031.21C1514.97,1021.32 1488.54,1009.76 1472.03,1006.45C1496.8,1046.08 1505.04,1079.1 1505.04,1118.72C1505.04,1146.79 1500.11,1176.5 1488.55,1202.92L1478.64,1224.38C1465.41,1202.92 1452.21,1188.07 1435.7,1174.85C1439,1188.07 1443.96,1216.14 1443.96,1235.95C1443.96,1288.78 1424.14,1335 1376.27,1364.72C1368.03,1339.97 1346.53,1303.64 1328.38,1280.52C1330.05,1330.06 1328.38,1384.55 1310.22,1422.52C1273.92,1470.41 1222.73,1500.12 1145.13,1518.28C1158.33,1485.26 1169.89,1399.4 1163.28,1293.75C1148.42,1316.85 1130.26,1361.44 1123.66,1417.57C1105.49,1402.72 1049.36,1358.14 1049.36,1283.84C1049.36,1254.1 1059.27,1222.75 1079.08,1191.38C1051.03,1201.27 1032.86,1221.09 1014.7,1257.42C1008.1,1204.58 1016.35,1145.15 1044.43,1103.87C976.727,1100.56 955.262,1060.94 958.569,999.852C980.034,1016.36 999.852,1027.92 1029.57,1027.92C1057.64,1027.92 1093.96,1016.36 1130.29,968.478C1113.78,958.582 1097.27,953.615 1087.36,948.66C1072.5,945.366 1051.04,940.425 1031.23,914.005C1022.98,904.096 1011.41,900.789 994.898,900.789C975.093,900.789 947.026,907.404 902.449,928.869C907.404,816.576 960.23,781.921 1004.82,781.921C1026.29,781.921 1051.04,790.17 1077.46,805.033C1080.77,786.876 1092.33,767.058 1105.53,757.162L1011.42,532.59C1051.04,532.59 1090.67,549.101 1090.67,582.122C1090.67,592.031 1087.37,603.574 1079.11,615.143C1079.11,616.79 1079.11,616.79 1080.76,616.79L1082.4,616.79C1089.02,608.528 1098.91,603.574 1108.82,603.574C1130.29,603.574 1146.8,621.745 1146.8,641.549C1146.8,663.027 1130.29,679.538 1108.82,679.538C1107.18,679.538 1103.87,679.538 1102.22,677.878C1103.87,687.787 1130.29,700.99 1160.02,700.99C1184.78,700.99 1211.19,692.741 1226.06,663.014C1221.09,666.322 1212.86,669.616 1204.59,669.616C1183.13,669.616 1166.62,653.105 1166.62,631.641C1166.62,611.823 1183.13,593.665 1204.59,593.665C1211.18,593.665 1219.44,596.972 1224.4,600.267C1217.78,593.652 1212.84,583.743 1212.84,572.187C1212.84,552.382 1229.35,535.872 1250.82,535.872C1270.62,535.872 1287.13,552.382 1287.13,572.187C1287.13,582.096 1283.84,592.005 1277.22,598.607C1282.18,595.312 1288.77,593.652 1295.38,593.652C1315.2,593.652 1331.71,611.823 1331.71,631.628C1331.71,653.093 1315.19,669.603 1295.38,669.603C1285.47,669.603 1277.22,666.309 1270.61,661.354C1275.58,677.865 1303.64,704.284 1338.32,704.284C1358.12,704.284 1377.93,697.687 1397.73,677.883ZM1074.17,833.113C1047.75,816.589 1024.62,808.341 1004.83,808.341C956.961,808.341 938.778,857.872 932.189,889.246C956.961,880.984 976.766,876.03 994.924,876.03C1018.05,876.03 1036.21,882.631 1051.07,897.495C1064.27,917.313 1082.44,920.62 1085.74,922.267C1112.16,928.869 1156.75,945.379 1156.75,966.844C1156.75,970.138 1155.09,975.106 1150.13,980.047C1107.2,1037.84 1064.27,1052.7 1029.61,1052.7C1014.74,1052.7 999.891,1049.4 989.982,1046.1C998.231,1072.52 1024.65,1079.12 1046.12,1079.12C1062.63,1079.12 1079.14,1075.83 1112.16,1069.23C1077.49,1095.63 1047.76,1130.32 1041.16,1184.8C1072.52,1161.68 1103.9,1156.72 1136.92,1155.07C1097.29,1197.99 1074.18,1240.92 1074.18,1283.86C1074.18,1328.41 1093.99,1353.2 1107.2,1368.06C1122.07,1297.05 1158.39,1252.48 1181.51,1231.01C1196.37,1330.09 1189.76,1439.03 1181.51,1481.98C1222.79,1467.1 1259.11,1447.3 1288.82,1409.32C1305.34,1377.96 1306.99,1293.76 1300.38,1224.41C1338.38,1247.54 1369.74,1290.44 1386.25,1325.12C1407.7,1303.66 1419.26,1273.94 1419.26,1235.97C1419.26,1191.39 1406.07,1155.06 1392.84,1123.69C1422.58,1135.24 1448.97,1148.45 1472.09,1173.22C1477.06,1155.06 1480.36,1136.89 1480.36,1117.09C1480.36,1049.38 1444.03,1001.51 1417.61,976.74C1458.9,976.74 1482,983.355 1505.1,991.603C1506.78,948.673 1496.88,897.495 1457.23,857.872C1422.58,897.508 1389.54,920.62 1323.5,943.732C1381.28,989.956 1364.76,1057.64 1310.27,1123.69C1305.33,1095.61 1297.07,1070.85 1278.91,1049.38C1282.23,1085.71 1273.97,1155.05 1196.36,1191.38C1199.66,1161.66 1194.71,1135.24 1189.76,1110.47C1184.8,1117.07 1174.89,1125.32 1164.98,1131.94C1163.34,1125.34 1161.68,1110.47 1163.34,1100.58C1176.54,1090.67 1189.76,1075.82 1201.31,1059.29C1212.87,1087.36 1219.47,1127 1221.12,1145.15C1247.54,1118.73 1269,1072.51 1240.93,988.296C1282.22,1009.76 1303.68,1031.23 1318.55,1067.55C1361.46,994.911 1316.87,956.935 1250.84,932.163C1328.43,923.914 1422.56,889.246 1470.43,791.83C1439.05,790.17 1387.87,801.739 1341.64,862.827C1335.04,859.519 1326.78,852.918 1323.49,847.963C1343.3,821.557 1366.43,800.092 1391.18,785.228C1391.18,781.934 1387.88,778.627 1386.23,776.98L1118.75,776.98C1108.84,776.98 1100.59,795.137 1095.63,814.955C1102.24,816.589 1112.14,818.249 1120.39,818.249C1130.3,818.249 1140.21,816.589 1151.77,816.589C1169.94,816.589 1199.65,818.249 1217.81,829.806C1214.52,838.054 1211.21,843.009 1206.25,847.963C1202.96,846.316 1199.65,844.656 1196.34,844.656C1186.43,887.586 1155.06,897.495 1135.26,897.495C1080.77,897.495 1070.86,856.225 1074.17,833.113ZM1376.31,753.868L1387.23,727.435L1112.74,727.435L1123.7,753.868L1376.31,753.868ZM1160.02,839.714C1158.37,847.963 1150.11,859.519 1133.6,859.506C1117.09,859.506 1110.48,849.61 1107.18,841.349C1103.87,841.349 1098.91,841.349 1095.62,839.701C1095.62,867.768 1115.44,876.03 1133.6,876.03C1148.45,876.03 1169.91,871.075 1176.51,841.362C1171.56,839.714 1164.96,839.714 1160.02,839.714ZM846.316,1559.56C917.313,1559.56 983.355,1571.14 983.342,1632.21L885.926,1632.21C885.926,1605.79 869.428,1602.49 846.303,1602.49C824.851,1602.49 811.635,1609.09 811.635,1623.94C811.635,1640.45 823.191,1645.42 857.859,1645.42C945.366,1645.42 983.355,1661.91 989.956,1701.56L1046.09,1562.87L1169.91,1562.87L1231,1711.46L1292.1,1562.87L1415.92,1562.87L1483.61,1727.96L1483.61,1562.87L1681.75,1562.87C1731.27,1562.87 1744.47,1599.2 1744.47,1619C1744.47,1638.81 1736.25,1665.23 1698.25,1670.17C1741.18,1675.14 1751.09,1708.14 1751.09,1727.95C1751.09,1751.07 1734.58,1789.05 1689.99,1789.05L1422.54,1789.05L1407.67,1752.72L1298.7,1752.72L1283.85,1789.05L1178.17,1789.05L1163.31,1752.72L1052.69,1752.72L1039.47,1789.05L953.615,1789.05L961.877,1769.25C948.66,1780.79 925.548,1794.02 849.61,1794.02C775.307,1794.02 710.912,1779.15 709.265,1718.05L806.68,1718.05C806.68,1732.93 816.602,1747.79 847.963,1747.79C885.939,1747.79 889.246,1734.58 889.246,1726.32C889.246,1711.48 879.337,1701.57 833.113,1701.57C765.411,1701.57 717.552,1689.99 717.552,1635.53C717.552,1572.79 788.523,1559.56 846.316,1559.56ZM1074.17,1699.92L1141.86,1699.92L1108.84,1617.37L1074.17,1699.92ZM1320.18,1699.92L1387.87,1699.92L1353.19,1617.37L1320.18,1699.92ZM1635.54,1650.38C1643.76,1650.38 1650.38,1642.12 1650.39,1633.85C1650.39,1623.96 1643.78,1617.37 1635.54,1617.37L1564.53,1617.37L1564.53,1650.38L1635.54,1650.38ZM1564.53,1729.62L1640.47,1729.62C1648.72,1729.62 1655.33,1723.02 1655.33,1713.11C1655.33,1704.86 1648.73,1698.25 1640.47,1698.25L1564.53,1698.25L1564.53,1729.62ZM814.942,909.051C831.453,925.574 857.859,953.628 899.142,953.628C940.425,953.628 971.799,938.765 999.865,938.765C1021.33,938.765 1057.66,950.321 1074.17,988.296C1065.91,980.047 1046.1,970.138 1013.07,970.138C991.603,970.138 950.334,993.251 915.665,993.251C862.827,993.251 831.453,948.673 814.942,909.051Z" style="fill:rgb(106,115,120);"/>
    </g>
</svg>
