<?xml version="1.0" encoding="UTF-8" standalone="no"?>
<!DOCTYPE svg PUBLIC "-//W3C//DTD SVG 1.1//EN" "http://www.w3.org/Graphics/SVG/1.1/DTD/svg11.dtd">
<svg width="100%" height="100%" viewBox="0 0 200 120" version="1.1" xmlns="http://www.w3.org/2000/svg" xmlns:xlink="http://www.w3.org/1999/xlink" xml:space="preserve" xmlns:serif="http://www.serif.com/" style="fill-rule:evenodd;clip-rule:evenodd;stroke-linejoin:round;stroke-miterlimit:2;">
    <g transform="matrix(0.215221,0,0,0.215221,21.4443,19.164)">
        <path d="M293.01,1.12C373.03,-1.7 453.13,1.1 533.01,6.23C541.42,6.96 549.94,6.9 558.22,8.67C562.7,9.75 567.54,11.46 570.16,15.53C572.55,19.96 572.6,25.13 573.22,30.01C575.12,53.98 575.68,78.05 577.47,102.02C574.01,102.44 570.55,101.91 567.09,101.8C505.48,98.61 443.82,95.96 382.11,95.88C350.15,95.97 318.15,95.66 286.22,97.21C278.48,98.35 269.72,100.94 265.25,107.84C289.41,112.13 313.52,116.76 337.67,121.13C417.71,136.11 497.81,150.76 577.85,165.72C577.78,180.9 577.81,196.08 577.84,211.26C532.83,203.81 487.9,195.77 442.92,188.08C346.15,171.4 249.41,154.49 152.61,137.97C152.8,121.12 153.52,104.28 153.87,87.42C154.48,74.07 154.1,60.54 157.12,47.43C159.15,38.18 162.91,28.88 169.92,22.27C182.02,10.29 199.52,6.92 215.81,5.23C241.48,2.85 267.26,2.07 293.01,1.12ZM152.15,160.14C290.79,185.72 429.38,211.73 568,237.46C571.03,238.2 574.27,238.26 577.18,239.37L577.53,240.17C576.77,262.91 576.33,285.67 575.51,308.41C574.98,322.44 573.5,337.12 566.28,349.48C558.54,362.26 544.12,369.33 529.85,372C508.82,375.95 487.34,376.21 466.04,377.38C374.39,381.54 282.55,379.24 191.05,372.94C183.74,372.43 176.3,372.3 169.2,370.27C165.52,369.11 161.72,367.24 159.64,363.84C157.41,359.38 157.27,354.29 156.72,349.43C154.76,322.9 153.72,296.32 152.33,269.76C199.53,272.76 246.81,274.44 294.1,275.49C339.76,276.23 385.42,276.22 431.08,276.67C440.93,277.08 451.58,275.2 459.05,268.28C460.14,267.03 461.91,265.87 461.73,264C441.15,260.91 420.69,257.07 400.15,253.69C317.51,239.56 234.83,225.56 152.2,211.35C152.1,194.28 152.22,177.21 152.15,160.14Z" style="fill:rgb(106,115,120);fill-rule:nonzero;"/>
    </g>
</svg>
