<?xml version="1.0" encoding="UTF-8" standalone="no"?>
<!DOCTYPE svg PUBLIC "-//W3C//DTD SVG 1.1//EN" "http://www.w3.org/Graphics/SVG/1.1/DTD/svg11.dtd">
<svg width="100%" height="100%" viewBox="0 0 200 120" version="1.1" xmlns="http://www.w3.org/2000/svg" xmlns:xlink="http://www.w3.org/1999/xlink" xml:space="preserve" xmlns:serif="http://www.serif.com/" style="fill-rule:evenodd;clip-rule:evenodd;stroke-linejoin:round;stroke-miterlimit:2;">
    <g transform="matrix(0.0410412,0,0,0.0410412,28.6437,18.9588)">
        <path d="M1738.7,5C2164.6,5 2621.2,91.8 2984.6,322.4C3220.6,473.4 3440.3,702.2 3440.3,1000.4C3440.3,1348.6 3142.9,1601.8 2858,1750C2519,1925.5 2118.4,1995 1738.6,1995C1312.8,1995 857.1,1909.2 493.6,1677.7C257.6,1526.7 37,1297.9 37,1000.4C37,650.6 333.6,398.3 619.3,250C959.3,74.6 1359,5 1738.7,5ZM1735.1,110.8C1339.1,110.8 912.3,184.9 568.7,391.9C352.6,521.2 139.2,724.7 139.2,995C139.2,1312.5 428.5,1534.7 687.1,1662.3C1007.2,1818.6 1381.5,1879.4 1735.1,1879.4C2131.9,1879.4 2558.8,1805.1 2902.4,1598.1C3117.6,1467.9 3331.9,1265.4 3331.9,995.1C3331.9,676.9 3043.4,454.4 2784,327.9C2463.8,171.3 2089.5,110.8 1735.1,110.8ZM240.5,775.3L892.4,664.1L1088.6,238.2L1284,664.1L1935.8,775.3L1284,887.5L1088.6,1314.3L892.4,887.5L240.5,775.3ZM1673.6,1099.8L1961.1,1049.3L2047,856.7L2132.9,1049.3L2420.5,1099.8L2132.9,1149.5L2047,1342.2L1961.1,1149.5L1673.6,1099.8ZM1961.1,1497.8L2247.7,1448.1L2333.6,1254.6L2420.4,1448.1L2707.9,1497.8L2420.4,1548.4L2333.6,1741.1L2247.7,1548.4L1961.1,1497.8ZM2523.6,1091.9L2810.2,1041.2L2896.1,848.6L2982.9,1041.2L3270.4,1091.9L2982.9,1141.6L2896,1334L2810.1,1141.5L2523.6,1091.9ZM1077.8,1567.4L1365.3,1517.7L1452.1,1324L1537.9,1517.7L1825.5,1567.4L1537.9,1618L1452.1,1810.7L1365.3,1618L1077.8,1567.4ZM2268.6,586.3L2556.1,536.6L2642,343.2L2727.9,536.6L3015.4,586.3L2727.9,636.9L2642,829.6L2556,636.9L2268.6,586.3Z" style="fill:rgb(106,115,120);"/>
    </g>
</svg>
