<?xml version="1.0" encoding="UTF-8" standalone="no"?>
<!DOCTYPE svg PUBLIC "-//W3C//DTD SVG 1.1//EN" "http://www.w3.org/Graphics/SVG/1.1/DTD/svg11.dtd">
<svg width="100%" height="100%" viewBox="0 0 200 120" version="1.1" xmlns="http://www.w3.org/2000/svg" xmlns:xlink="http://www.w3.org/1999/xlink" xml:space="preserve" xmlns:serif="http://www.serif.com/" style="fill-rule:evenodd;clip-rule:evenodd;stroke-linejoin:round;stroke-miterlimit:2;">
    <g transform="matrix(0.97,0,0,0.97,27.25,-12.75)">
        <path d="M75,120.4C50.1,120.4 29.7,99.9 29.7,75C29.7,69.4 30.7,64.1 32.6,59.1L59.1,112.4C59.4,113.1 59.9,113.7 60.7,113.7C61.5,113.7 62,113.1 62.3,112.4L74.5,85.1C74.6,84.8 74.8,84.5 75.1,84.5C75.4,84.5 75.5,84.8 75.7,85.1L87.9,112.4C88.2,113.1 88.7,113.7 89.5,113.7C90.3,113.7 90.8,113.1 91.1,112.4L117.6,59.1C119.5,64.1 120.5,69.4 120.5,75C120.3,99.9 99.9,120.4 75,120.4ZM75,64.7C74.7,64.7 74.6,64.4 74.4,64.1L60.2,32.1C64.8,30.4 69.8,29.5 75,29.5C80.2,29.5 85.2,30.4 89.8,32.1L75.6,64.1C75.4,64.5 75.3,64.7 75,64.7ZM60.5,97.6C60.2,97.6 60.1,97.3 59.9,97L36.9,50.6C41,44.3 46.5,39 53.2,35.3L69.8,72.2C70,72.8 70.5,73 71,73L79,73C79.6,73 80,72.9 80.3,72.2L96.9,35.3C103.5,39 109.1,44.3 113.2,50.6L90,97C89.9,97.3 89.7,97.6 89.4,97.6C89.1,97.6 89,97.3 88.8,97L80.1,77.2C79.8,76.5 79.4,76.4 78.8,76.4L70.8,76.4C70.2,76.4 69.8,76.5 69.5,77.2L61.1,97C61,97.3 60.8,97.6 60.5,97.6ZM75,125C102.7,125 125,102.7 125,75C125,47.3 102.7,25 75,25C47.3,25 25,47.3 25,75C25,102.7 47.3,125 75,125Z" style="fill:rgb(106,115,120);fill-rule:nonzero;"/>
    </g>
</svg>
